
<svg width="496px" height="496px" viewBox="0 0 496 496" version="1.1" xmlns="http://www.w3.org/2000/svg" xmlns:xlink="http://www.w3.org/1999/xlink">
    <g id="Page-1" stroke="none" stroke-width="1" fill="none" fill-rule="evenodd">
        <g id="bitcoin" fill="#0872B9" fill-rule="nonzero">
            <circle id="Oval" fill-opacity="0.1" cx="248" cy="248" r="192"></circle>
            <g id="Group">
                <path d="M248,0 C111.033382,0 -8.8817842e-16,111.033382 -8.8817842e-16,248 C-8.8817842e-16,384.966618 111.033382,496 248,496 C384.966618,496 496,384.966618 496,248 C495.841295,111.099174 384.900826,0.15870531 248,0 Z M417.496,406.184 L394.88,383.568 C427.176907,348.706311 445.946387,303.446753 447.8,255.96 C447.872,255.96 447.928,256 448,256 L464,256 C468.418278,256 472,252.418278 472,248 C472,243.581722 468.418278,240 464,240 L448,240 C447.928,240 447.872,240 447.8,240 C445.936955,192.527177 427.168119,147.283359 394.88,112.432 L417.496,89.816 C500.834969,178.806878 500.834969,317.193122 417.496,406.184 L417.496,406.184 Z M248,432 C146.379606,432 64,349.620394 64,248 C64,146.379606 146.379606,64 248,64 C349.620394,64 432,146.379606 432,248 C431.885373,349.572876 349.572876,431.885373 248,432 Z M406.184,78.504 L383.568,101.12 C348.706311,68.8230927 303.446753,50.0536126 255.96,48.2 C255.96,48.128 256,48.072 256,48 L256,32 C256,27.581722 252.418278,24 248,24 C243.581722,24 240,27.581722 240,32 L240,48 L240,48.2 C192.527177,50.0630449 147.283359,68.831881 112.432,101.12 L89.816,78.504 C178.806878,-4.83496877 317.193122,-4.83496877 406.184,78.504 Z M78.504,89.816 L101.12,112.432 C68.8230927,147.293689 50.0536126,192.553247 48.2,240.04 C48.128,240.04 48.072,240.04 48,240.04 L32,240.04 C27.5817222,240.04 24.0000005,243.621722 24.0000005,248.04 C24.0000005,252.458278 27.5817222,256.04 32,256.04 L48,256.04 C48.072,256.04 48.128,256 48.2,256 C50.0630449,303.472823 68.831881,348.716641 101.12,383.568 L78.504,406.184 C-4.83496877,317.193122 -4.83496877,178.806878 78.504,89.816 L78.504,89.816 Z M89.816,417.496 L112.432,394.88 C147.293689,427.176907 192.553247,445.946387 240.04,447.8 L240.04,448 L240.04,464 C240.04,468.418278 243.621722,472 248.04,472 C252.458278,472 256.04,468.418278 256.04,464 L256.04,448 C256.04,447.928 256,447.872 256,447.8 C303.472823,445.936955 348.716641,427.168119 383.568,394.88 L406.184,417.496 C317.193122,500.834969 178.806878,500.834969 89.816,417.496 L89.816,417.496 Z" id="Shape"></path>
                <path d="M256,88 C256,83.581722 252.418278,80 248,80 C155.258199,80.1014078 80.1014078,155.258199 80,248 C80,252.418278 83.581722,256 88,256 C92.418278,256 96,252.418278 96,248 C96.092588,164.091099 164.091099,96.092588 248,96 C252.418278,96 256,92.418278 256,88 L256,88 Z" id="Path"></path>
                <path d="M320,240 L296,240 L296,184 C296,179.581722 292.418278,176 288,176 L272,176 L272,160 C272,155.581722 268.418278,152 264,152 C259.581722,152 256,155.581722 256,160 L256,176 L240,176 L240,160 C240,155.581722 236.418278,152 232,152 C227.581722,152 224,155.581722 224,160 L224,176 L208,176 C203.581722,176 200,179.581722 200,184 L200,312 C200,316.418278 203.581722,320 208,320 L224,320 L224,336 C224,340.418278 227.581722,344 232,344 C236.418278,344 240,340.418278 240,336 L240,320 L256,320 L256,336 C256,340.418278 259.581722,344 264,344 C268.418278,344 272,340.418278 272,336 L272,320 L320,320 C324.418278,320 328,316.418278 328,312 L328,248 C328,243.581722 324.418278,240 320,240 Z M216,192 L280,192 L280,240 L216,240 L216,192 Z M312,304 L216,304 L216,256 L312,256 L312,304 Z" id="Shape"></path>
                <path d="M232,352 C227.581722,352 224,355.581722 224,360 L224,368 C224,372.418278 227.581722,376 232,376 C236.418278,376 240,372.418278 240,368 L240,360 C240,355.581722 236.418278,352 232,352 Z" id="Path"></path>
            </g>
        </g>
    </g>
</svg>