
<svg width="496px" height="473px" viewBox="0 0 496 473" version="1.1" xmlns="http://www.w3.org/2000/svg" xmlns:xlink="http://www.w3.org/1999/xlink">
    <g id="Page-1" stroke="none" stroke-width="1" fill="none" fill-rule="evenodd">
        <g id="gold" fill="#0872B9" fill-rule="nonzero">
            <polygon id="Path" fill-opacity="0.1" points="55.996094 352.5 95.996094 392.5 55.996094 352.5 39.996094 352.5 32.875 377.378906 71.996094 416.5 32.875 377.378906 7.996094 464.5 239.996094 464.5 207.996094 352.5"></polygon>
            <polygon id="Path" fill-opacity="0.1" points="367.996094 352.5 303.996094 352.5 343.996094 392.5 303.996094 352.5 287.996094 352.5 280.875 377.378906 319.996094 416.5 280.875 377.378906 255.996094 464.5 487.996094 464.5 455.996094 352.5"></polygon>
            <polygon id="Path" fill-opacity="0.1" points="367.996094 352.5 335.996094 240.5 175.996094 240.5 215.996094 280.5 175.996094 240.5 159.996094 240.5 153.734375 265.378906 153.539062 266.042969 191.996094 304.5 153.539062 266.042969 127.996094 352.5"></polygon>
            <g id="Group">
                <path d="M463.683594,350.296875 C462.703125,346.867188 459.566406,344.499995 455.996094,344.499995 L374.027344,344.499995 L343.683594,238.296875 C342.703125,234.867188 339.566406,232.499995 335.996094,232.499995 L159.996094,232.499995 C156.328125,232.496094 153.132812,234.988281 152.238281,238.546875 L122.019531,344.499995 L39.996094,344.499995 C36.425781,344.499995 33.289062,346.867188 32.308594,350.296875 L0.308594,462.296875 C-0.382812,464.710938 0.101562,467.308594 1.613281,469.3125 C3.121094,471.316406 5.488281,472.496094 7.996094,472.499995 L239.996094,472.499995 C242.507812,472.496094 244.871094,471.316406 246.382812,469.3125 C247.890625,467.308594 248.375,464.710938 247.683594,462.296875 L218.605469,360.499995 L277.386719,360.499995 L248.308594,462.304688 C247.621094,464.71875 248.105469,467.3125 249.617188,469.316406 C251.125,471.316406 253.488281,472.496094 255.996094,472.499995 L487.996094,472.499995 C490.507812,472.496094 492.871094,471.316406 494.382812,469.3125 C495.890625,467.308594 496.375,464.710938 495.683594,462.296875 L463.683594,350.296875 Z M157.394531,281.210938 L186.339844,310.152344 C189.480469,313.1875 194.46875,313.144531 197.554688,310.058594 C200.640625,306.972656 200.683594,301.980469 197.652344,298.84375 L162.453125,263.640625 L166.226562,248.5 L172.683594,248.5 L210.339844,286.152344 C213.480469,289.1875 218.46875,289.144531 221.554688,286.058594 C224.640625,282.972656 224.683594,277.980469 221.652344,274.84375 L195.308594,248.5 L329.964844,248.5 L357.386719,344.5 L138.699219,344.5 L157.394531,281.210938 Z M229.394531,456.5 L18.605469,456.5 L36.84375,392.660156 L66.339844,422.152344 C69.480469,425.1875 74.46875,425.144531 77.554688,422.058594 C80.640625,418.972656 80.683594,413.980469 77.652344,410.84375 L41.867188,375.058594 L46.027344,360.5 L52.683594,360.5 L90.339844,398.152344 C93.480469,401.1875 98.46875,401.144531 101.554688,398.058594 C104.640625,394.972656 104.683594,389.980469 101.652344,386.84375 L75.308594,360.5 L201.964844,360.5 L229.394531,456.5 Z M266.613281,456.5 L284.851562,392.660156 L314.347656,422.152344 C317.488281,425.1875 322.476562,425.144531 325.5625,422.058594 C328.648438,418.972656 328.691406,413.980469 325.660156,410.84375 L289.867188,375.058594 L294.027344,360.5 L300.683594,360.5 L338.339844,398.152344 C341.480469,401.1875 346.46875,401.144531 349.554688,398.058594 C352.640625,394.972656 352.683594,389.980469 349.652344,386.84375 L323.308594,360.5 L449.964844,360.5 L477.386719,456.5 L266.613281,456.5 Z" id="Shape"></path>
                <path d="M271.996094,120.5 L295.996094,120.5 L295.996094,144.5 C295.996094,148.917969 299.578125,152.5 303.996094,152.5 L335.996094,152.5 C340.414062,152.5 343.996094,148.917969 343.996094,144.5 L343.996094,120.5 L367.996094,120.5 C372.414062,120.5 375.996094,116.917969 375.996094,112.5 L375.996094,80.5 C375.996094,76.078125 372.414062,72.5 367.996094,72.5 L343.996094,72.5 L343.996094,48.5 C343.996094,44.078125 340.414062,40.5 335.996094,40.5 L303.996094,40.5 C299.578125,40.5 295.996094,44.078125 295.996094,48.5 L295.996094,72.5 L271.996094,72.5 C267.578125,72.5 263.996094,76.078125 263.996094,80.5 L263.996094,112.5 C263.996094,116.917969 267.578125,120.5 271.996094,120.5 Z M279.996094,88.5 L303.996094,88.5 C308.414062,88.5 311.996094,84.917969 311.996094,80.5 L311.996094,56.5 L327.996094,56.5 L327.996094,80.5 C327.996094,84.917969 331.578125,88.5 335.996094,88.5 L359.996094,88.5 L359.996094,104.5 L335.996094,104.5 C331.578125,104.5 327.996094,108.078125 327.996094,112.5 L327.996094,136.5 L311.996094,136.5 L311.996094,112.5 C311.996094,108.078125 308.414062,104.5 303.996094,104.5 L279.996094,104.5 L279.996094,88.5 Z" id="Shape"></path>
                <path d="M487.996094,168.5 L463.996094,168.5 L463.996094,144.5 C463.996094,140.078125 460.414062,136.5 455.996094,136.5 L423.996094,136.5 C419.578125,136.5 415.996094,140.078125 415.996094,144.5 L415.996094,168.5 L391.996094,168.5 C387.578125,168.5 383.996094,172.078125 383.996094,176.5 L383.996094,208.5 C383.996094,212.917969 387.578125,216.5 391.996094,216.5 L415.996094,216.5 L415.996094,240.5 C415.996094,244.917969 419.578125,248.5 423.996094,248.5 L455.996094,248.5 C460.414062,248.5 463.996094,244.917969 463.996094,240.5 L463.996094,216.5 L487.996094,216.5 C492.414062,216.5 495.996094,212.917969 495.996094,208.5 L495.996094,176.5 C495.996094,172.078125 492.414062,168.5 487.996094,168.5 Z M479.996094,200.5 L455.996094,200.5 C451.578125,200.5 447.996094,204.078125 447.996094,208.5 L447.996094,232.5 L431.996094,232.5 L431.996094,208.5 C431.996094,204.078125 428.414062,200.5 423.996094,200.5 L399.996094,200.5 L399.996094,184.5 L423.996094,184.5 C428.414062,184.5 431.996094,180.917969 431.996094,176.5 L431.996094,152.5 L447.996094,152.5 L447.996094,176.5 C447.996094,180.917969 451.578125,184.5 455.996094,184.5 L479.996094,184.5 L479.996094,200.5 Z" id="Shape"></path>
                <path d="M415.996094,40.5 L431.996094,40.5 L431.996094,56.5 C431.996094,60.917969 435.578125,64.5 439.996094,64.5 C444.414062,64.5 447.996094,60.917969 447.996094,56.5 L447.996094,40.5 L463.996094,40.5 C468.414062,40.5 471.996094,36.917969 471.996094,32.5 C471.996094,28.078125 468.414062,24.5 463.996094,24.5 L447.996094,24.5 L447.996094,8.5 C447.996094,4.078125 444.414062,0.5 439.996094,0.5 C435.578125,0.5 431.996094,4.078125 431.996094,8.5 L431.996094,24.5 L415.996094,24.5 C411.578125,24.5 407.996094,28.078125 407.996094,32.5 C407.996094,36.917969 411.578125,40.5 415.996094,40.5 Z" id="Path"></path>
            </g>
        </g>
    </g>
</svg>