
<svg width="118px" height="91px" viewBox="0 0 118 91" version="1.1" xmlns="http://www.w3.org/2000/svg" xmlns:xlink="http://www.w3.org/1999/xlink">
    <g id="PegnNet_Home" stroke="none" stroke-width="1" fill="none" fill-rule="evenodd" stroke-linecap="round" stroke-linejoin="round">
        <g id="Landing-Page" transform="translate(-279.000000, -1290.000000)" stroke="#0872B9" stroke-width="2">
            <g id="SERVICES" transform="translate(-484.000000, 1002.000000)">
                <g id="Services" transform="translate(630.000000, 252.436490)">
                    <g id="#1" transform="translate(0.000000, 36.000000)">
                        <g id="trading" transform="translate(134.000000, 0.563510)">
                            <path d="M115.790034,41.3950171 C115.790034,52.660483 106.658629,61.7900343 95.3950171,61.7900343 C84.1314054,61.7900343 75,52.660483 75,41.3950171 C75,30.1295513 84.1314054,21 95.3950171,21 C106.658629,21 115.790034,30.1295513 115.790034,41.3950171 Z" id="Stroke-1"></path>
                            <path d="M115.790034,48 C115.790034,59.2654658 106.658629,68.3950171 95.3950171,68.3950171 C84.1314054,68.3950171 75,59.2654658 75,48" id="Stroke-3"></path>
                            <path d="M84.4430054,78 C69.9606892,92.4804622 46.4823163,92.4823163 32,78" id="Stroke-5"></path>
                            <path d="M32,10.8617372 C46.4841704,-3.62057906 69.9606892,-3.62057906 84.4430054,10.8617372" id="Stroke-7"></path>
                            <path d="M83.8274126,11 L78,11.2651352" id="Stroke-9"></path>
                            <path d="M84.2651352,11.2971422 L84,6" id="Stroke-11"></path>
                            <path d="M32,78 L32.2651352,83.2971422" id="Stroke-13"></path>
                            <path d="M32,78.2651352 L37.8274126,78" id="Stroke-15"></path>
                            <path d="M74,48.4163699 L74,41" id="Stroke-17"></path>
                            <path d="M114,48.4163699 L114,41" id="Stroke-19"></path>
                            <path d="M40.7900343,41.3950171 C40.7900343,52.660483 31.6586289,61.7900343 20.3950171,61.7900343 C9.1314054,61.7900343 0,52.660483 0,41.3950171 C0,30.1295513 9.1314054,21 20.3950171,21 C31.6586289,21 40.7900343,30.1295513 40.7900343,41.3950171 Z" id="Stroke-21"></path>
                            <path d="M40.7900343,48 C40.7900343,59.2654658 31.6586289,68.3950171 20.3950171,68.3950171 C9.1314054,68.3950171 0,59.2654658 0,48" id="Stroke-23"></path>
                            <path d="M40,48.4163699 L40,41" id="Stroke-25"></path>
                            <path d="M0,48.4163699 L0,41" id="Stroke-27"></path>
                            <path d="M14,32 L14,50.5409247" id="Stroke-29"></path>
                            <path d="M23,32 C25.0469181,32 26.7063308,33.6594128 26.7063308,35.7063308 C26.7063308,37.755103 25.0469181,39.4126617 23,39.4126617" id="Stroke-31"></path>
                            <path d="M23,39 C26.0722312,39 28.5641315,41.4919003 28.5641315,44.5659856 C28.5641315,47.6363627 26.0722312,50.128263 23,50.128263" id="Stroke-33"></path>
                            <path d="M13,31 L22.2723164,31" id="Stroke-35"></path>
                            <path d="M13,50 L22.2686082,50" id="Stroke-37"></path>
                            <path d="M22.418224,38 L15,38" id="Stroke-39"></path>
                            <path d="M18,31.8540925 L18,30" id="Stroke-41"></path>
                            <path d="M18,50 L18,51.8540925" id="Stroke-43"></path>
                            <path d="M11,59 L11,66.4163699" id="Stroke-45"></path>
                            <path d="M29,59 L29,66.4163699" id="Stroke-47"></path>
                            <path d="M20,61 L20,68.4163699" id="Stroke-49"></path>
                            <path d="M85,59 L85,66.4163699" id="Stroke-51"></path>
                            <path d="M103,59 L103,66.4163699" id="Stroke-53"></path>
                            <path d="M94,61 L94,68.4163699" id="Stroke-55"></path>
                            <polygon id="Stroke-81" points="95.4163699 34 88 41.4163699 95.4163699 48.8327397 102.83274 41.4163699"></polygon>
                        </g>
                    </g>
                </g>
            </g>
        </g>
    </g>
</svg>