
<svg width="496px" height="489px" viewBox="0 0 496 489" version="1.1" xmlns="http://www.w3.org/2000/svg" xmlns:xlink="http://www.w3.org/1999/xlink">
    <g id="Page-1" stroke="none" stroke-width="1" fill="none" fill-rule="evenodd">
        <g id="money" transform="translate(-1.000000, 0.000000)" fill="#0872B9" fill-rule="nonzero">
            <path d="M168.996094,104.5 C168.996094,60.316406 133.179688,24.5 88.996094,24.5 C44.816406,24.5 8.996094,60.316406 8.996094,104.5 C8.996094,148.683594 44.816406,184.5 88.996094,184.5 C133.179688,184.5 168.996094,148.683594 168.996094,104.5 Z M64.996094,126.652344 C64.996094,136.851562 76.574219,144.5 88.996094,144.5 C100.269531,145.488281 110.265625,137.285156 111.492188,126.035156 C111.492188,102.699219 66.492188,105.78125 66.492188,82.964844 C67.722656,71.710938 77.722656,63.503906 88.996094,64.5 C101.421875,64.5 112.996094,72.148438 112.996094,82.347656 C112.996094,72.148438 101.421875,64.5 88.996094,64.5 C77.722656,63.503906 67.722656,71.710938 66.492188,82.964844 C66.492188,105.78125 111.492188,102.699219 111.492188,126.035156 C110.265625,137.285156 100.269531,145.488281 88.996094,144.5 C76.574219,144.5 64.996094,136.851562 64.996094,126.652344 Z" id="Shape" fill-opacity="0.1"></path>
            <path d="M248.996094,320.5 C204.816406,320.5 168.996094,356.316406 168.996094,400.5 C168.996094,444.683594 204.816406,480.5 248.996094,480.5 C293.179688,480.5 328.996094,444.683594 328.996094,400.5 C328.996094,356.316406 293.179688,320.5 248.996094,320.5 L248.996094,320.5 Z M264.996094,424.5 L248.996094,424.5 L248.996094,400.5 L216.996094,368.5 L248.996094,400.5 L280.996094,368.5 L248.996094,400.5 L248.996094,424.5 L264.996094,424.5 Z" id="Shape" fill-opacity="0.1"></path>
            <path d="M408.996094,24.5 C364.816406,24.5 328.996094,60.316406 328.996094,104.5 C328.996094,148.683594 364.816406,184.5 408.996094,184.5 C453.179688,184.5 488.996094,148.683594 488.996094,104.5 C488.996094,60.316406 453.179688,24.5 408.996094,24.5 Z M424.996094,144.5 C407.585938,144.457031 392.214844,133.121094 387.03125,116.5 C384.320312,108.730469 384.320312,100.269531 387.03125,92.5 C393.089844,72.972656 412.964844,61.210938 432.996094,65.300781 C412.96875,61.222656 393.105469,72.976562 387.046875,92.5 C384.335938,100.269531 384.335938,108.730469 387.046875,116.5 C393.117188,136.015625 412.96875,147.765625 432.996094,143.699219 C430.363281,144.234375 427.683594,144.503906 424.996094,144.5 L424.996094,144.5 Z" id="Shape" fill-opacity="0.1"></path>
            <g id="Group">
                <path d="M88.996094,136.5 C80.773438,136.5 72.996094,131.699219 72.996094,126.660156 C72.996094,122.242188 69.417969,118.660156 64.996094,118.660156 C60.578125,118.660156 56.996094,122.242188 56.996094,126.660156 C58.148438,139.652344 68.234375,150.0625 81.183594,151.628906 C81.101562,151.914062 81.039062,152.207031 80.996094,152.5 C80.996094,156.917969 84.578125,160.5 88.996094,160.5 C93.417969,160.5 96.996094,156.917969 96.996094,152.5 C96.953125,152.167969 96.882812,151.839844 96.789062,151.515625 C109.371094,149.347656 118.785156,138.78125 119.492188,126.035156 C119.492188,109.101562 104.292969,102.332031 92.054688,96.90625 C81.132812,92.042969 74.453125,88.683594 74.453125,82.964844 C74.453125,77.242188 81.140625,72.5 88.996094,72.5 C97.222656,72.5 104.996094,77.300781 104.996094,82.339844 C104.996094,86.757812 108.578125,90.339844 112.996094,90.339844 C117.417969,90.339844 120.996094,86.757812 120.996094,82.339844 C119.847656,69.347656 109.761719,58.933594 96.8125,57.371094 C96.894531,57.085938 96.957031,56.792969 96.996094,56.5 C97.015625,53.25 95.066406,50.3125 92.066406,49.066406 C89.0625,47.820312 85.605469,48.511719 83.316406,50.820312 C82.613281,51.597656 82.042969,52.492188 81.636719,53.460938 C81.191406,54.410156 80.96875,55.449219 80.996094,56.5 C81.039062,56.832031 81.101562,57.164062 81.183594,57.492188 C68.613281,59.664062 59.203125,70.226562 58.492188,82.964844 C58.492188,99.5 73.492188,106.164062 85.550781,111.523438 C96.75,116.484375 103.492188,119.941406 103.492188,126.035156 C103.492188,131.699219 96.855469,136.5 88.996094,136.5 Z" id="Path"></path>
                <path d="M275.34375,362.84375 L248.996094,389.1875 L222.652344,362.84375 C219.515625,359.8125 214.523438,359.855469 211.441406,362.941406 C208.355469,366.027344 208.308594,371.015625 211.34375,374.15625 L240.996094,403.8125 L240.996094,416.5 L232.996094,416.5 C228.578125,416.5 224.996094,420.082031 224.996094,424.5 C224.996094,428.917969 228.578125,432.5 232.996094,432.5 L240.996094,432.5 L240.996094,448.5 C240.996094,452.917969 244.578125,456.5 248.996094,456.5 C253.417969,456.5 256.996094,452.917969 256.996094,448.5 L256.996094,432.5 L264.996094,432.5 C269.417969,432.5 272.996094,428.917969 272.996094,424.5 C272.996094,420.082031 269.417969,416.5 264.996094,416.5 L256.996094,416.5 L256.996094,403.8125 L286.652344,374.15625 C289.6875,371.015625 289.640625,366.027344 286.554688,362.941406 C283.46875,359.855469 278.480469,359.8125 275.34375,362.84375 L275.34375,362.84375 Z" id="Path"></path>
                <path d="M496.996203,104.5 C497.046875,72.246094 479.417969,42.558594 451.078125,27.160156 C422.738281,11.761719 388.242188,13.125 361.207031,30.714844 C291.824219,-9.574219 206.171875,-9.574219 136.789062,30.714844 C98.003906,5.5 46.308594,14.671875 18.5625,51.6875 C-9.183594,88.707031 -3.484375,140.894531 31.597656,171.050781 C27.222656,188.53125 25.007812,206.480469 24.996094,224.5 C25.308594,316.554688 81.671875,399.136719 167.285156,432.972656 C180.558594,466.484375 212.953125,488.496094 248.996094,488.496094 C285.042969,488.496094 317.4375,466.484375 330.710938,432.972656 C416.324219,399.136719 472.6875,316.554688 472.996094,224.5 C472.988281,206.480469 470.773438,188.53125 466.398438,171.050781 C485.8125,154.386719 496.984375,130.082031 496.996203,104.5 Z M480.996094,104.5 C480.996094,144.265625 448.761719,176.5 408.996094,176.5 C369.234375,176.5 336.996094,144.265625 336.996094,104.5 C336.996094,64.734375 369.234375,32.5 408.996094,32.5 C448.746094,32.542969 480.953125,64.753906 480.996094,104.5 Z M424.996094,224.5 C424.773438,288.484375 390.011719,347.363281 334.09375,378.46875 C324.097656,339.644531 289.089844,312.507812 248.996094,312.507812 C208.90625,312.507812 173.898438,339.644531 163.902344,378.46875 C107.984375,347.363281 73.222656,288.484375 72.996094,224.5 C73.007812,213.410156 74.082031,202.347656 76.199219,191.460938 C108.097656,196.253906 140.058594,183.160156 159.425781,157.359375 C178.792969,131.5625 182.441406,97.21875 168.933594,67.921875 C219.167969,42.023438 278.828125,42.023438 329.0625,67.921875 C315.375,97.214844 318.949219,131.664062 338.355469,157.519531 C357.765625,183.378906 389.851562,196.425781 421.796875,191.460938 C423.914062,202.347656 424.988281,213.410156 424.996094,224.5 Z M248.996094,16.4999987 C283.46875,16.496094 317.398438,25.074219 347.726562,41.460938 C343.765625,45.308594 340.175781,49.519531 336.996094,54.035156 C281.839844,25.335938 216.15625,25.335938 160.996094,54.035156 C157.820312,49.519531 154.230469,45.308594 150.269531,41.460938 C180.597656,25.074219 214.527344,16.496094 248.996094,16.4999987 L248.996094,16.4999987 Z M16.996094,104.5 C16.996094,64.734375 49.234375,32.5 88.996094,32.5 C128.761719,32.5 160.996094,64.734375 160.996094,104.5 C160.996094,144.265625 128.761719,176.5 88.996094,176.5 C49.25,176.457031 17.042969,144.246094 16.996094,104.5 Z M40.996094,224.5 C41.003906,209.875 42.570312,195.289062 45.660156,180.996094 C50.429688,183.699219 55.441406,185.953125 60.628906,187.722656 C58.226562,199.835938 57.007812,212.152344 56.996094,224.5 C57.257812,296.363281 97.441406,362.125 161.269531,395.148438 C161.15625,396.921875 160.996094,398.691406 160.996094,400.5 C161.03125,404.839844 161.386719,409.171875 162.0625,413.460938 C88.453125,379.304688 41.261719,305.644531 40.996094,224.5 Z M248.996094,472.5 C209.234375,472.5 176.996094,440.265625 176.996094,400.5 C176.996094,360.734375 209.234375,328.5 248.996094,328.5 C288.761719,328.5 320.996094,360.734375 320.996094,400.5 C320.953125,440.246094 288.746094,472.457031 248.996094,472.5 Z M456.996094,224.5 C456.734375,305.644531 409.539062,379.304688 335.933594,413.460938 C336.609375,409.171875 336.964844,404.839844 336.996094,400.5 C336.996094,398.691406 336.839844,396.921875 336.726562,395.148438 C400.554688,362.125 440.738281,296.363281 440.996094,224.5 C440.988281,212.144531 439.773438,199.820312 437.367188,187.699219 C442.554688,185.929688 447.566406,183.675781 452.335938,180.972656 C455.429688,195.273438 456.992188,209.867188 456.996094,224.5 L456.996094,224.5 Z" id="Shape"></path>
                <path d="M360.996094,116.5 C360.996094,120.917969 364.578125,124.5 368.996094,124.5 L381.421875,124.5 C389.234375,141.542969 406.25,152.476562 424.996094,152.5 C428.222656,152.5 431.4375,152.183594 434.597656,151.546875 C438.929688,150.664062 441.726562,146.4375 440.84375,142.105469 C439.957031,137.773438 435.730469,134.976562 431.398438,135.859375 C419.6875,138.25 407.628906,133.859375 400.199219,124.5 L408.996094,124.5 C413.417969,124.5 416.996094,120.917969 416.996094,116.5 C416.996094,112.082031 413.417969,108.5 408.996094,108.5 L393.40625,108.5 C393.183594,107.175781 393.046875,105.839844 392.996094,104.5 C393.046875,103.160156 393.183594,101.824219 393.40625,100.5 L408.996094,100.5 C413.417969,100.5 416.996094,96.917969 416.996094,92.5 C416.996094,88.082031 413.417969,84.5 408.996094,84.5 L400.199219,84.5 C406.214844,76.941406 415.339844,72.527344 424.996094,72.5 C427.148438,72.492188 429.292969,72.707031 431.398438,73.140625 C435.730469,74.023438 439.957031,71.226562 440.84375,66.894531 C441.726562,62.5625 438.929688,58.335938 434.597656,57.453125 C412.742188,53.019531 390.710938,64.226562 381.421875,84.5 L368.996094,84.5 C364.578125,84.5 360.996094,88.082031 360.996094,92.5 C360.996094,96.917969 364.578125,100.5 368.996094,100.5 L377.199219,100.5 C377.09375,101.820312 376.996094,103.148438 376.996094,104.5 C376.996094,105.851562 377.09375,107.179688 377.199219,108.5 L368.996094,108.5 C364.578125,108.5 360.996094,112.082031 360.996094,116.5 L360.996094,116.5 Z" id="Path"></path>
            </g>
        </g>
    </g>
</svg>