<?xml version="1.0" encoding="iso-8859-1"?>
<!-- Generator: Adobe Illustrator 19.0.0, SVG Export Plug-In . SVG Version: 6.00 Build 0)  -->
<svg version="1.1" id="Capa_1" xmlns="http://www.w3.org/2000/svg" xmlns:xlink="http://www.w3.org/1999/xlink" x="0px" y="0px"
	 viewBox="0 0 512 512" style="enable-background:new 0 0 512 512;" xml:space="preserve">
<g>
	<path style="fill:#E3E7F2;" d="M495.616,196.267c-1.536-5.803-3.328-11.52-5.291-17.067c-6.361-18.085-14.992-35.289-25.685-51.2
		c-3.919-5.898-8.134-11.594-12.629-17.067C408.316,56.918,342.543,25.553,273.067,25.6c-5.717,0-11.435,0.171-17.067,0.683v0.014
		c-5.642-0.414-11.319-0.696-17.067-0.696c-2.208,0-4.39,0.105-6.583,0.167c-2.071-0.061-4.132-0.167-6.217-0.167
		c-120.177,0-217.6,103.154-217.6,230.4s97.423,230.4,217.6,230.4c2.085,0,4.146-0.105,6.217-0.167
		c2.193,0.061,4.375,0.167,6.583,0.167c5.747,0,11.425-0.283,17.067-0.696v0.014c5.632,0.512,11.349,0.683,17.067,0.683
		c69.476,0.047,135.249-31.318,178.944-85.333c4.437-5.461,8.704-11.179,12.629-17.067c10.693-15.911,19.324-33.115,25.685-51.2
		c1.963-5.547,3.755-11.264,5.291-17.067c4.536-16.709,7.085-33.894,7.595-51.2c0.171-2.816,0.256-5.632,0.256-8.533
		c0-2.901-0.085-5.717-0.256-8.533C502.701,230.161,500.152,212.975,495.616,196.267z"/>
	<g transform="translate(1)">
		<path style="fill:#FFFFFF;" d="M245.699,486.229c-2.56,0.085-5.205,0.171-7.765,0.171c-2.219,0-4.352-0.085-6.571-0.171
			c-2.048,0.085-4.181,0.171-6.229,0.171c-120.149,0-217.6-103.168-217.6-230.4s97.451-230.4,217.6-230.4
			c2.048,0,4.181,0.085,6.229,0.171c2.219-0.085,4.352-0.171,6.571-0.171l7.68,0.171C127.853,28.587,33.133,130.56,33.133,256
			S127.853,483.499,245.699,486.229z"/>
		<path style="fill:#FFFFFF;" d="M280.6,26.283c-1.451-0.085-2.901-0.171-10.752-0.597c0.737-0.071,1.478-0.1,2.219-0.086
			c4.267,0,8.533,0.085,12.8,0.427C283.441,26.025,282.016,26.11,280.6,26.283z"/>
		<path style="fill:#FFFFFF;" d="M280.6,485.717c1.416,0.173,2.841,0.258,4.267,0.256c-4.267,0.341-8.533,0.427-12.8,0.427
			c-0.797,0.014-1.595-0.014-2.389-0.085C273.347,486.229,277.016,485.973,280.6,485.717z"/>
		<path style="fill:#FFFFFF;" d="M255,485.717c1.451,0.171,2.901,0.256,10.752,0.597c-0.737,0.071-1.478,0.1-2.219,0.085
			c-2.219,0-4.352-0.085-6.571-0.171c-2.048,0.085-4.181,0.171-6.229,0.171c-1.424,0.03-2.849-0.027-4.267-0.171
			C249.368,486.059,252.184,485.888,255,485.717z"/>
		<path style="fill:#FFFFFF;" d="M255,26.283l-8.533-0.512c1.417-0.144,2.842-0.201,4.267-0.171c2.048,0,4.181,0.085,6.229,0.171
			c2.219-0.085,4.352-0.171,6.571-0.171c1.451,0,2.901,0,4.267,0.085C263.533,25.685,259.267,25.941,255,26.283z"/>
	</g>
	<g>
		<path style="fill:#FFFFFF;" d="M0,256c0.261-38.51,9.603-76.416,27.267-110.637c10.081-19.222,22.749-36.972,37.65-52.755
			c1.841-1.987,3.609-4.047,5.514-5.969l6.01-5.473c4.063-3.581,7.901-7.435,12.161-10.778c8.467-6.769,17.375-12.968,26.665-18.555
			c37.299-22.607,80.051-34.627,123.666-34.767v17.067c-40.493,0.139-80.183,11.301-114.811,32.29
			c-8.629,5.186-16.904,10.939-24.771,17.221c-3.961,3.1-7.508,6.702-11.289,10.02l-5.594,5.073
			c-1.768,1.787-3.402,3.709-5.111,5.555c-13.841,14.654-25.608,31.137-34.971,48.988C26,185.059,17.326,220.248,17.067,256H0z"/>
		<g>
			<path style="fill:#428DFF;" d="M12.202,194.315c0.375,0.443,0.809,0.833,1.289,1.16c0.405,0.365,0.862,0.667,1.358,0.894
				c0.52,0.238,1.056,0.439,1.604,0.603c2.175,0.54,4.473,0.261,6.456-0.784c0.934-0.554,1.751-1.285,2.405-2.153
				c1.919-2.658,2.289-6.132,0.973-9.134c-0.521-0.971-1.22-1.836-2.06-2.55c-0.827-0.742-1.79-1.318-2.835-1.694
				c-2.17-0.714-4.531-0.57-6.597,0.404c-2.096,1.058-3.675,2.918-4.379,5.157c-0.559,2.272-0.27,4.67,0.814,6.744L12.202,194.315z"
				/>
			<path style="fill:#428DFF;" d="M238.933,426.667c94.257,0,170.667-76.41,170.667-170.667S333.19,85.333,238.933,85.333
				S68.267,161.743,68.267,256C68.374,350.212,144.721,426.559,238.933,426.667z M238.933,102.4c84.831,0,153.6,68.769,153.6,153.6
				s-68.769,153.6-153.6,153.6s-153.6-68.769-153.6-153.6C85.429,171.209,154.142,102.496,238.933,102.4z"/>
			<path style="fill:#428DFF;" d="M244.992,65.792c0.341-0.429,0.683-0.854,1.021-1.279c0.324-0.476,0.583-0.993,0.771-1.538
				c0.245-0.485,0.418-1.003,0.512-1.538c0.094-0.564,0.151-1.133,0.171-1.704c0.02-3.467-2.059-6.601-5.261-7.931
				s-6.89-0.59-9.331,1.872c-0.754,0.828-1.362,1.78-1.796,2.813c-0.436,1.027-0.667,2.13-0.679,3.246
				c0.016,2.263,0.902,4.432,2.475,6.059C236.239,69.092,241.627,69.092,244.992,65.792L244.992,65.792z"/>
			<path style="fill:#428DFF;" d="M232.875,446.208c-0.754,0.828-1.362,1.78-1.796,2.813c-0.436,1.027-0.667,2.13-0.679,3.246
				c0.016,2.263,0.902,4.432,2.475,6.059c3.365,3.3,8.752,3.3,12.117,0c0.341-0.429,0.683-0.854,1.021-1.279
				c0.324-0.476,0.583-0.993,0.771-1.538c0.245-0.485,0.418-1.003,0.513-1.538c0.094-0.564,0.151-1.133,0.171-1.704
				c0.02-3.467-2.059-6.601-5.261-7.931S235.316,443.747,232.875,446.208z"/>
			<path style="fill:#428DFF;" d="M188.158,74.921c2.245,0.022,4.403-0.872,5.975-2.475c1.635-1.575,2.558-3.747,2.558-6.017
				s-0.924-4.442-2.558-6.017c-2.455-2.414-6.105-3.15-9.304-1.875c-1.038,0.413-1.971,1.054-2.729,1.875
				c-3.3,3.332-3.3,8.701,0,12.033c0.782,0.794,1.708,1.432,2.729,1.879C185.893,74.728,187.021,74.93,188.158,74.921z"/>
			<path style="fill:#428DFF;" d="M296.788,440.829c-0.265-0.482-0.612-0.915-1.025-1.279c-3.421-3.158-8.695-3.158-12.117,0
				c-3.3,3.332-3.3,8.701,0,12.033c1.617,1.597,3.786,2.513,6.059,2.558c1.115-0.011,2.217-0.244,3.242-0.683
				c1.077-0.387,2.044-1.031,2.817-1.875c1.603-1.572,2.497-3.73,2.475-5.975c0.028-0.573-0.03-1.148-0.171-1.704
				c-0.1-0.552-0.243-1.095-0.425-1.625C297.387,441.779,297.102,441.294,296.788,440.829z"/>
			<path style="fill:#428DFF;" d="M133.717,90.792c0.315,0.449,0.657,0.877,1.025,1.283c0.833,0.769,1.782,1.402,2.813,1.875
				c1.032,0.412,2.135,0.615,3.246,0.596c0.573,0.027,1.147-0.029,1.704-0.167c0.523-0.104,1.037-0.248,1.538-0.429
				c0.531-0.251,1.044-0.536,1.538-0.854c0.446-0.316,0.873-0.656,1.28-1.021c0.341-0.429,0.683-0.854,1.021-1.283
				c0.324-0.475,0.583-0.99,0.771-1.533c0.245-0.485,0.418-1.003,0.513-1.538c0.098-0.565,0.155-1.136,0.171-1.708
				c0.029-1.119-0.205-2.229-0.683-3.242c-0.434-1.033-1.04-1.986-1.792-2.817c-0.429-0.341-0.854-0.679-1.279-1.021
				c-0.476-0.324-0.993-0.583-1.538-0.771c-0.485-0.245-1.003-0.418-1.538-0.513c-1.663-0.347-3.393-0.168-4.95,0.513
				c-2.141,0.78-3.828,2.467-4.608,4.608c-0.436,1.026-0.667,2.127-0.679,3.242c0.013,0.573,0.07,1.144,0.171,1.708
				c0.091,0.535,0.263,1.053,0.508,1.538C133.133,89.801,133.393,90.317,133.717,90.792z"/>
			<path style="fill:#428DFF;" d="M331.008,419.925c-0.792,0.801-1.404,1.761-1.796,2.817c-0.437,1.026-0.667,2.127-0.679,3.242
				c-0.022,2.27,0.87,4.453,2.475,6.058c1.605,1.605,3.788,2.497,6.058,2.475c1.115-0.014,2.216-0.246,3.242-0.683
				c1.034-0.433,1.987-1.039,2.817-1.792c3.3-3.365,3.3-8.752,0-12.117c-0.829-0.755-1.782-1.361-2.817-1.792
				C337.131,416.792,333.459,417.5,331.008,419.925z"/>
			<path style="fill:#428DFF;" d="M93.012,121.941c0.302,0.48,0.676,0.912,1.108,1.279c1.596,1.629,3.778,2.55,6.059,2.558
				c1.115-0.011,2.217-0.244,3.242-0.683c1.04-0.412,1.975-1.053,2.733-1.875c0.432-0.367,0.806-0.799,1.108-1.279
				c0.254-0.429,0.513-0.942,0.767-1.454c0.171-0.508,0.341-1.021,0.513-1.621c0.1-0.535,0.157-1.077,0.171-1.621
				c-0.02-1.142-0.252-2.271-0.683-3.329c-0.412-1.039-1.053-1.972-1.875-2.729c-2.023-1.982-4.893-2.84-7.672-2.295
				c-2.779,0.545-5.112,2.424-6.236,5.024c-0.406,1.063-0.609,2.192-0.6,3.329c-0.028,0.546,0.03,1.093,0.171,1.621
				c0.092,0.552,0.236,1.095,0.429,1.621C92.5,121,92.754,121.513,93.012,121.941z"/>
			<path style="fill:#428DFF;" d="M374.442,386.9c-2.05,0.917-3.691,2.558-4.608,4.608c-0.437,1.025-0.67,2.127-0.683,3.242
				c-0.009,2.285,0.917,4.474,2.562,6.059c0.78,0.797,1.707,1.435,2.729,1.879c1.031,0.41,2.132,0.612,3.242,0.596
				c2.273,0.04,4.463-0.855,6.059-2.475c1.606-1.605,2.497-3.789,2.475-6.059c0.022-2.244-0.872-4.4-2.475-5.971
				C381.286,386.369,377.641,385.633,374.442,386.9z"/>
			<path style="fill:#428DFF;" d="M72.192,150.013c-2.061-0.938-4.427-0.938-6.487,0c-1.034,0.434-1.987,1.041-2.817,1.796
				c-1.558,1.636-2.441,3.8-2.475,6.059c0.016,0.571,0.073,1.141,0.171,1.704c0.095,0.535,0.268,1.053,0.513,1.538
				c0.187,0.544,0.447,1.062,0.771,1.538c0.341,0.425,0.679,0.85,1.021,1.279c0.831,0.752,1.783,1.358,2.817,1.792
				c2.067,0.911,4.421,0.911,6.487,0c1.053-0.394,2.013-1.005,2.816-1.792c1.57-1.628,2.455-3.797,2.471-6.059
				c-0.032-2.258-0.914-4.422-2.471-6.059C74.206,151.018,73.246,150.406,72.192,150.013z"/>
			<path style="fill:#428DFF;" d="M402.859,348.075c-3.313,3.34-3.298,8.73,0.033,12.052c3.331,3.322,8.721,3.322,12.052,0
				c3.331-3.322,3.345-8.712,0.032-12.052C411.549,344.93,406.285,344.93,402.859,348.075z"/>
			<path style="fill:#428DFF;" d="M55.379,199.167c-2.016-1.999-4.895-2.863-7.679-2.304c-0.552,0.09-1.095,0.232-1.621,0.425
				c-0.512,0.234-0.997,0.52-1.45,0.854c-0.497,0.245-0.934,0.595-1.283,1.025c-0.821,0.758-1.462,1.691-1.875,2.729
				c-0.403,1.063-0.605,2.192-0.596,3.329c-0.023,2.245,0.869,4.402,2.471,5.975c1.564,1.625,3.719,2.548,5.975,2.558
				c2.28-0.008,4.463-0.93,6.059-2.558c0.435-0.367,0.809-0.8,1.108-1.283c0.258-0.425,0.513-0.937,0.771-1.45
				c0.193-0.525,0.335-1.068,0.425-1.621c0.141-0.528,0.199-1.075,0.171-1.621C57.86,202.958,56.971,200.781,55.379,199.167z"/>
			<path style="fill:#428DFF;" d="M422.483,312.829c1.605,1.606,3.789,2.497,6.059,2.475c2.245,0.022,4.403-0.872,5.975-2.475
				c1.629-1.596,2.55-3.778,2.558-6.059c-0.009-2.255-0.932-4.409-2.558-5.971c-3.355-3.246-8.679-3.246-12.033,0
				c-1.603,1.571-2.497,3.727-2.475,5.971C419.986,309.041,420.878,311.224,422.483,312.829z"/>
			<path style="fill:#428DFF;" d="M36.608,249.941c-0.754,0.828-1.362,1.78-1.796,2.813c-0.906,2.068-0.906,4.42,0,6.487
				c0.414,1.045,1.024,2.001,1.796,2.817c0.83,0.752,1.781,1.358,2.813,1.792c2.067,0.911,4.421,0.911,6.487,0
				c1.033-0.434,1.986-1.04,2.817-1.792c0.77-0.817,1.378-1.773,1.792-2.817c0.911-2.067,0.911-4.421,0-6.487
				c-0.434-1.032-1.04-1.983-1.792-2.813c-0.83-0.754-1.782-1.362-2.817-1.796c-2.079-0.85-4.409-0.85-6.487,0
				C38.388,248.58,37.437,249.187,36.608,249.941z"/>
			<path style="fill:#428DFF;" d="M426.667,256c0.024,4.07,2.918,7.556,6.913,8.329c3.996,0.773,7.981-1.384,9.52-5.152
				c1.539-3.768,0.203-8.097-3.191-10.343s-7.901-1.782-10.767,1.107C427.583,251.577,426.699,253.741,426.667,256z"/>
			<path style="fill:#428DFF;" d="M57.259,303.529c-0.258-0.512-0.513-1.025-0.771-1.45c-0.322-0.492-0.693-0.95-1.108-1.367
				c-2.037-1.964-4.898-2.822-7.679-2.304c-0.555,0.121-1.097,0.292-1.621,0.513c-0.509,0.204-0.995,0.461-1.45,0.767
				c-0.46,0.299-0.89,0.642-1.283,1.025c-1.591,1.615-2.479,3.792-2.471,6.059c-0.024,2.255,0.855,4.426,2.442,6.029
				s3.748,2.505,6.004,2.504c2.27,0.022,4.453-0.87,6.058-2.475c1.605-1.605,2.497-3.788,2.475-6.058
				c0.028-0.546-0.03-1.093-0.171-1.621C57.594,304.598,57.451,304.055,57.259,303.529z"/>
			<path style="fill:#428DFF;" d="M422.483,199.167c-1.606,1.605-2.497,3.789-2.475,6.059c-0.022,2.245,0.872,4.403,2.475,5.975
				c1.596,1.629,3.778,2.55,6.059,2.558c4.666-0.111,8.423-3.867,8.533-8.533c-0.008-2.28-0.93-4.463-2.558-6.059
				C431.128,196.008,425.873,196.008,422.483,199.167z"/>
			<path style="fill:#428DFF;" d="M62.888,360.192c0.831,0.752,1.783,1.358,2.817,1.792c2.067,0.911,4.421,0.911,6.487,0
				c1.054-0.394,2.013-1.005,2.816-1.792c3.294-3.367,3.294-8.75,0-12.117c-0.802-0.79-1.761-1.402-2.816-1.796
				c-2.079-0.85-4.409-0.85-6.487,0c-1.034,0.434-1.987,1.041-2.817,1.796C59.588,351.44,59.588,356.827,62.888,360.192
				L62.888,360.192z"/>
			<path style="fill:#428DFF;" d="M414.975,151.808c-2.896-2.953-7.476-3.444-10.932-1.171s-4.82,6.672-3.256,10.501
				c1.564,3.829,5.618,6.015,9.677,5.219c4.058-0.797,6.985-4.354,6.986-8.49C417.421,155.607,416.537,153.442,414.975,151.808z"/>
			<path style="fill:#428DFF;" d="M103.421,386.9c-1.555-0.683-3.284-0.862-4.946-0.513c-0.513,0.171-1.112,0.341-1.625,0.513
				c-0.508,0.254-0.937,0.513-1.45,0.767c-0.465,0.324-0.894,0.697-1.279,1.112c-0.795,0.78-1.432,1.707-1.875,2.729
				c-0.413,1.03-0.617,2.132-0.6,3.242c-0.01,1.137,0.194,2.267,0.6,3.329c0.443,1.022,1.08,1.949,1.875,2.729
				c0.385,0.415,0.813,0.787,1.279,1.108c0.513,0.258,0.942,0.512,1.45,0.771c0.53,0.182,1.073,0.324,1.625,0.425
				c0.556,0.141,1.131,0.199,1.704,0.171c1.109,0.017,2.211-0.186,3.242-0.596c1.023-0.445,1.951-1.083,2.733-1.879
				c0.823-0.756,1.464-1.689,1.875-2.729c0.44-1.055,0.672-2.186,0.683-3.329c-0.012-1.115-0.244-2.217-0.683-3.242
				C107.115,389.456,105.474,387.814,103.421,386.9L103.421,386.9z"/>
			<path style="fill:#428DFF;" d="M374.442,125.096c3.187,1.379,6.896,0.631,9.3-1.875c1.603-1.572,2.497-3.73,2.475-5.975
				c0.023-2.27-0.869-4.454-2.475-6.059c-1.578-1.628-3.748-2.546-6.015-2.546c-2.267,0-4.437,0.919-6.015,2.546
				c-1.645,1.585-2.571,3.774-2.562,6.059c0.013,1.115,0.245,2.216,0.683,3.242C370.747,122.54,372.389,124.182,374.442,125.096
				L374.442,125.096z"/>
			<path style="fill:#428DFF;" d="M145.579,418.9c-0.476-0.323-0.993-0.581-1.538-0.767c-0.483-0.249-1.002-0.421-1.538-0.513
				c-1.663-0.349-3.394-0.17-4.95,0.513c-1.034,0.431-1.985,1.037-2.813,1.792c-1.559,1.635-2.443,3.799-2.475,6.059
				c0.014,0.544,0.071,1.086,0.171,1.621c0.079,0.565,0.25,1.112,0.508,1.621c0.17,0.525,0.431,1.015,0.771,1.45
				c0.293,0.49,0.636,0.948,1.025,1.367c0.814,0.772,1.769,1.38,2.813,1.792c1.027,0.438,2.13,0.67,3.246,0.683
				c0.571-0.016,1.141-0.073,1.704-0.171c0.535-0.095,1.053-0.268,1.538-0.513c0.544-0.186,1.061-0.444,1.538-0.767
				c0.425-0.341,0.85-0.683,1.279-1.025c0.341-0.429,0.683-0.854,1.021-1.367c0.34-0.435,0.601-0.925,0.771-1.45
				c0.257-0.509,0.431-1.056,0.512-1.621c0.098-0.535,0.155-1.077,0.171-1.621c0.03-1.119-0.205-2.23-0.683-3.242
				c-0.392-1.055-1.003-2.015-1.792-2.817C146.453,419.559,146.026,419.216,145.579,418.9z"/>
			<path style="fill:#428DFF;" d="M337.067,94.546c1.119,0.031,2.229-0.202,3.242-0.679c1.044-0.414,1.999-1.022,2.817-1.792
				c3.3-3.366,3.3-8.754,0-12.121c-0.831-0.752-1.783-1.358-2.817-1.792c-3.186-1.252-6.808-0.554-9.3,1.792
				c-0.754,0.83-1.362,1.782-1.796,2.817c-0.436,1.026-0.667,2.127-0.679,3.242c-0.082,3.475,2.038,6.623,5.288,7.855
				C334.835,94.344,335.946,94.577,337.067,94.546z"/>
			<path style="fill:#428DFF;" d="M192.85,438.442c-0.425-0.258-0.937-0.512-1.45-0.767c-0.526-0.193-1.068-0.336-1.621-0.429
				c-2.784-0.559-5.663,0.305-7.679,2.304c-0.768,0.804-1.402,1.725-1.879,2.729c-0.403,1.063-0.605,2.192-0.596,3.329
				c-0.017,1.109,0.186,2.211,0.596,3.242c0.477,1.005,1.111,1.928,1.879,2.733c1.596,1.629,3.778,2.55,6.059,2.558
				c0.544-0.014,1.086-0.071,1.621-0.171c0.6-0.171,1.108-0.341,1.621-0.513c0.513-0.254,1.025-0.513,1.45-0.767
				c0.482-0.301,0.915-0.675,1.283-1.108c0.821-0.76,1.462-1.694,1.875-2.733c0.44-1.025,0.672-2.127,0.683-3.242
				c-0.02-1.142-0.252-2.271-0.683-3.329c-0.413-1.038-1.054-1.971-1.875-2.729C193.766,439.117,193.333,438.743,192.85,438.442z"/>
			<path style="fill:#428DFF;" d="M289.704,74.921c1.109,0.017,2.211-0.186,3.242-0.596c1.06-0.423,2.019-1.063,2.817-1.879
				c1.606-1.605,2.497-3.789,2.475-6.059c0.021-2.245-0.872-4.402-2.475-5.975c-3.388-3.242-8.728-3.242-12.117,0
				c-3.3,3.332-3.3,8.701,0,12.033c0.828,0.778,1.78,1.413,2.817,1.879C287.493,74.735,288.595,74.937,289.704,74.921z"/>
			<path style="fill:#428DFF;" d="M500.976,184.246c-7.996-25.303-20.159-49.094-35.99-70.391c-0.121-0.137-0.186-0.315-0.315-0.443
				c-45.036-60.611-116.093-96.341-191.604-96.346c-6.411,0-12.002,0.228-17.137,0.671c-5.621-0.397-11.276-0.671-16.996-0.671
				c-43.615,0.141-86.368,12.16-123.666,34.767c-9.29,5.586-18.198,11.785-26.665,18.554c-4.26,3.343-8.098,7.197-12.161,10.778
				l-6.01,5.473c-1.905,1.923-3.672,3.983-5.514,5.97c-14.901,15.783-27.569,33.533-37.65,52.755l-3.845,7.972
				c-1.048,2.026-1.213,4.394-0.456,6.545c0.757,2.151,2.368,3.894,4.454,4.818c4.266,1.854,9.24,0.104,11.405-4.013l3.561-7.404
				c9.363-17.851,21.13-34.334,34.971-48.988c1.709-1.846,3.343-3.768,5.111-5.556l5.594-5.073
				c3.781-3.318,7.328-6.921,11.289-10.02c7.867-6.282,16.142-12.035,24.771-17.221c86.247-52.105,196.785-39.491,269.075,30.705
				s88.148,180.316,38.6,268.057s-152.036,131.03-249.48,105.376C84.873,444.908,16.987,356.764,17.067,256
				c0.191-10.957,1.089-21.891,2.689-32.732c0.547-4.611-2.586-8.853-7.154-9.686c-2.251-0.395-4.566,0.149-6.404,1.507
				c-1.839,1.358-3.04,3.41-3.324,5.678C1.151,232.436,0.191,244.206,0,256c0.148,131.898,107.035,238.785,238.933,238.933
				c5.72,0,11.375-0.274,16.996-0.671c5.136,0.443,10.726,0.671,17.137,0.671c75.511-0.005,146.568-35.735,191.604-96.346
				c0.129-0.128,0.194-0.306,0.315-0.443c15.831-21.297,27.995-45.088,35.99-70.391c0.084-0.184,0.123-0.38,0.194-0.572
				c14.441-46.356,14.441-96.008,0-142.365C501.098,184.626,501.059,184.43,500.976,184.246z M486.698,315.733h-16.392
				c4.299-16.75,6.762-33.917,7.344-51.2h17.067C494.063,281.856,491.371,299.041,486.698,315.733z M454.116,384h-13.583
				c10.214-16.023,18.472-33.213,24.598-51.2h16.083C474.462,350.98,465.352,368.193,454.116,384L454.116,384z M481.214,179.2
				h-16.083c-6.126-17.987-14.384-35.177-24.598-51.2h13.583C465.352,143.807,474.462,161.02,481.214,179.2z M477.65,247.467
				c-0.582-17.283-3.045-34.451-7.344-51.2h16.393c4.673,16.693,7.365,33.878,8.019,51.2H477.65z M370.801,56.882
				c26.678,13.175,50.452,31.553,69.922,54.052h-12.114C412.452,89.852,392.919,71.588,370.801,56.882z M370.801,455.118
				c22.118-14.706,41.651-32.97,57.808-54.052h12.114C421.252,423.566,397.479,441.943,370.801,455.118z"/>
			<path style="fill:#428DFF;" d="M213.333,315.733h64c16.495,0,29.867-13.372,29.867-29.867c0-16.495-13.372-29.867-29.867-29.867
				h-64c-4.713,0-8.533,3.82-8.533,8.533V307.2C204.8,311.913,208.621,315.733,213.333,315.733z M221.867,273.067h55.467
				c7.069,0,12.8,5.731,12.8,12.8c0,7.069-5.731,12.8-12.8,12.8h-55.467V273.067z"/>
			<path style="fill:#428DFF;" d="M153.6,349.867h17.067v17.067c0,4.713,3.821,8.533,8.533,8.533h34.133
				c4.713,0,8.533-3.821,8.533-8.533v-17.067h17.067v17.067c0,4.713,3.821,8.533,8.533,8.533H281.6c4.713,0,8.533-3.821,8.533-8.533
				v-18.358c22.524-4.57,40.859-20.882,48.019-42.72c7.16-21.839,2.043-45.84-13.403-62.859
				c9.174-15.788,10.587-34.915,3.831-51.879c-6.756-16.964-20.931-29.884-38.447-35.042v-19.541c0-4.713-3.821-8.533-8.533-8.533
				h-34.133c-4.713,0-8.533,3.821-8.533,8.533V153.6h-17.067v-17.067c0-4.713-3.821-8.533-8.533-8.533H179.2
				c-4.713,0-8.533,3.821-8.533,8.533V153.6H153.6c-4.713,0-8.533,3.821-8.533,8.533v34.133c0,4.713,3.82,8.533,8.533,8.533h17.067
				v17.067H153.6c-4.713,0-8.533,3.821-8.533,8.533v34.133c0,4.713,3.82,8.533,8.533,8.533h17.067v25.6H153.6
				c-4.713,0-8.533,3.82-8.533,8.533v34.133C145.067,346.046,148.887,349.867,153.6,349.867z M162.133,315.733H179.2
				c4.713,0,8.533-3.821,8.533-8.533v-42.667c0-4.713-3.82-8.533-8.533-8.533h-17.067v-17.067H179.2
				c4.713,0,8.533-3.821,8.533-8.533v-34.133c0-4.713-3.82-8.533-8.533-8.533h-17.067v-17.067H179.2
				c4.713,0,8.533-3.821,8.533-8.533v-17.067H204.8v17.067c0,4.713,3.82,8.533,8.533,8.533h34.133c4.713,0,8.533-3.821,8.533-8.533
				v-17.067h17.067v17.779c0.001,4.166,3.009,7.723,7.117,8.417c14.717,2.416,27.085,12.383,32.573,26.251
				c5.489,13.868,3.292,29.599-5.786,41.433c-2.729,3.572-2.221,8.648,1.163,11.608c14.275,12.398,19.701,32.16,13.759,50.109
				c-5.942,17.949-22.089,30.569-40.942,31.999c-4.448,0.339-7.884,4.048-7.883,8.509V358.4H256v-17.067
				c0-4.713-3.82-8.533-8.533-8.533h-34.133c-4.713,0-8.533,3.821-8.533,8.533V358.4h-17.067v-17.067
				c0-4.713-3.82-8.533-8.533-8.533h-17.067V315.733z"/>
			<path style="fill:#428DFF;" d="M213.333,238.933h59.733c14.138,0,25.6-11.462,25.6-25.6c0-14.138-11.462-25.6-25.6-25.6h-59.733
				c-4.713,0-8.533,3.82-8.533,8.533V230.4c0,2.263,0.899,4.434,2.499,6.034S211.07,238.933,213.333,238.933z M221.867,204.8h51.2
				c4.713,0,8.533,3.821,8.533,8.533c0,4.713-3.82,8.533-8.533,8.533h-51.2V204.8z"/>
		</g>
	</g>
</g>
<g>
</g>
<g>
</g>
<g>
</g>
<g>
</g>
<g>
</g>
<g>
</g>
<g>
</g>
<g>
</g>
<g>
</g>
<g>
</g>
<g>
</g>
<g>
</g>
<g>
</g>
<g>
</g>
<g>
</g>
</svg>
