
<svg width="504px" height="404px" viewBox="0 0 504 404" version="1.1" xmlns="http://www.w3.org/2000/svg" xmlns:xlink="http://www.w3.org/1999/xlink">
    <g id="Page-1" stroke="none" stroke-width="1" fill="none" fill-rule="evenodd">
        <g id="gold" fill-rule="nonzero">
            <g id="Group" transform="translate(8.000000, 92.000000)" fill="#D4E1F4">
                <polygon id="Path" points="243.801 202.134 75.932 202.134 109.506 101.413 210.227 101.413"></polygon>
                <polygon id="Path" points="327.735 101.413 159.866 101.413 193.44 0.691 294.161 0.691"></polygon>
                <polygon id="Path" points="411.669 202.134 243.801 202.134 277.374 101.413 378.096 101.413"></polygon>
                <polygon id="Path" points="168.26 302.855 0.391 302.855 33.965 202.134 134.686 202.134"></polygon>
                <polygon id="Path" points="487.21 302.855 319.342 302.855 352.915 202.134 453.637 202.134"></polygon>
            </g>
            <g id="Group" transform="translate(276.000000, 92.000000)" fill="#7FACFA">
                <polygon id="Path" points="185.637 202.134 160.456 202.134 194.03 302.855 219.21 302.855"></polygon>
                <polygon id="Path" points="110.096 101.413 84.915 101.413 118.489 202.134 143.669 202.134"></polygon>
                <polygon id="Path" points="26.161 0.691 0.981 0.691 34.555 101.413 59.735 101.413"></polygon>
            </g>
            <g id="Group" transform="translate(8.000000, 92.000000)" fill="#FFFFFF">
                <polygon id="Path" points="193.44 0.691 218.62 0.691 185.047 101.413 159.866 101.413"></polygon>
                <polygon id="Path" points="109.506 101.413 134.686 101.413 101.112 202.134 75.932 202.134"></polygon>
                <polygon id="Path" points="33.965 202.134 59.145 202.134 25.571 302.855 0.391 302.855"></polygon>
            </g>
            <polygon id="Path" fill="#D4E1F4" points="327.342 394.855 176.26 394.855 209.833 294.134 293.768 294.134"></polygon>
            <g id="Group" fill="#428DFF">
                <path d="M176.262,403.246005 L8.394,403.246005 C5.695,403.249 3.159,401.952 1.582,399.762 C0.004,397.572 -0.422,394.756 0.435,392.197 L34.009,291.476 C35.149,288.049 38.356,285.738 41.968,285.738 L142.689,285.738 C146.301,285.738 149.508,288.048 150.648,291.476 L184.222,392.197 C185.08,394.756 184.653,397.572 183.075,399.762 C181.497,401.952 178.962,403.249 176.262,403.246005 L176.262,403.246005 Z M20.041,386.459 L164.615,386.459 L136.64,302.525 L48.016,302.525 L20.041,386.459 Z" id="Shape"></path>
                <path d="M495.213,403.246005 L327.344,403.246005 C324.645,403.249 322.109,401.952 320.532,399.762 C318.954,397.572 318.528,394.756 319.385,392.197 L352.959,291.476 C354.099,288.049 357.306,285.738 360.918,285.738 L461.639,285.738 C465.251,285.738 468.458,288.048 469.598,291.476 L503.172,392.197 C504.03,394.756 503.603,397.572 502.025,399.762 C500.448,401.952 497.912,403.249 495.213,403.246005 L495.213,403.246005 Z M338.992,386.459 L483.566,386.459 L455.591,302.525 L366.968,302.525 L338.992,386.459 Z" id="Shape"></path>
                <path d="M327.344,403.246005 L176.262,403.246005 C173.563,403.249 171.027,401.952 169.45,399.762 C167.872,397.572 167.446,394.756 168.303,392.197 L201.877,291.476 C203.017,288.049 206.224,285.738 209.836,285.738 L293.77,285.738 C297.382,285.738 300.589,288.048 301.729,291.476 L335.303,392.197 C336.161,394.756 335.734,397.572 334.156,399.762 C332.578,401.952 330.044,403.249 327.344,403.246005 L327.344,403.246005 Z M187.91,386.459 L315.697,386.459 L287.722,302.525 L215.886,302.525 L187.91,386.459 Z" id="Shape"></path>
                <path d="M251.803,302.525005 L83.935,302.525005 C81.236,302.528 78.7,301.231 77.123,299.041 C75.545,296.851 75.119,294.035 75.976,291.476 L109.55,190.755 C110.69,187.328 113.897,185.017 117.509,185.017 L218.23,185.017 C221.842,185.017 225.049,187.327 226.189,190.755 L259.763,291.476 C260.621,294.035 260.194,296.851 258.616,299.041 C257.038,301.231 254.503,302.527 251.803,302.525005 L251.803,302.525005 Z M95.582,285.738 L240.156,285.738 L212.181,201.804 L123.558,201.804 L95.582,285.738 Z" id="Shape"></path>
                <path d="M419.672,302.525005 L251.803,302.525005 C249.104,302.528 246.568,301.231 244.991,299.041 C243.413,296.851 242.987,294.035 243.844,291.476 L277.418,190.755 C278.558,187.328 281.765,185.017 285.377,185.017 L386.098,185.017 C389.71,185.017 392.917,187.327 394.057,190.755 L427.631,291.476 C428.489,294.035 428.062,296.851 426.484,299.041 C424.907,301.231 422.371,302.527 419.672,302.525005 L419.672,302.525005 Z M263.451,285.738 L408.025,285.738 L380.05,201.804 L291.427,201.804 L263.451,285.738 Z" id="Shape"></path>
                <path d="M335.738,201.803005 L167.869,201.803005 C165.17,201.806 162.634,200.509 161.057,198.319 C159.479,196.129 159.053,193.313 159.91,190.754 L193.484,90.033 C194.624,86.606 197.831,84.2949997 201.443,84.2949997 L302.164,84.2949997 C305.776,84.2949997 308.983,86.605 310.123,90.033 L343.697,190.754 C344.555,193.313 344.128,196.129 342.55,198.319 C340.972,200.509 338.437,201.806 335.738,201.803005 Z M179.517,185.017 L324.09,185.017 L296.115,101.083 L207.492,101.083 L179.517,185.017 Z" id="Shape"></path>
                <path d="M293.771,50.7210034 C291.545,50.722 289.409,49.838 287.835,48.264 C286.261,46.69 285.377,44.554 285.377999,42.328 L285.377999,8.754 C285.377999,4.118 289.136,0.361 293.771,0.361 C298.407,0.361 302.164001,4.119 302.164001,8.754 L302.164001,42.328 C302.165,44.554 301.281,46.69 299.707,48.264 C298.133,49.839 295.997,50.723 293.771,50.7210034 Z" id="Path"></path>
                <path d="M327.353,75.9020013 C323.74,75.904 320.531,73.593 319.387,70.166 C318.243,66.739 319.421,62.964 322.312,60.796 L355.886,35.616 C359.594,32.836 364.852,33.589 367.632,37.296 C370.412,41.004 369.659,46.262 365.952,49.042 L332.378,74.222 C330.929,75.313 329.166,75.9020013 327.353,75.9020013 Z" id="Path"></path>
                <path d="M394.492,117.869 L352.525,117.869 C347.889,117.869 344.132,114.111 344.132,109.476 C344.132,104.841 347.89,101.083 352.525,101.083 L394.492,101.083 C399.128,101.083 402.885,104.841 402.885,109.476 C402.885,114.111 399.127,117.869 394.492,117.869 Z" id="Path"></path>
            </g>
        </g>
    </g>
</svg>