
<svg width="94px" height="91px" viewBox="0 0 94 91" version="1.1" xmlns="http://www.w3.org/2000/svg" xmlns:xlink="http://www.w3.org/1999/xlink">
    <defs>
        <polygon id="path-1" points="0 0.000147540984 32.4590164 0.000147540984 32.4590164 1.47540984 0 1.47540984"></polygon>
    </defs>
    <g id="PegnNet_Home" stroke="none" stroke-width="1" fill="none" fill-rule="evenodd">
        <g id="Landing-Page" transform="translate(-708.000000, -1288.000000)">
            <g id="SERVICES" transform="translate(-484.000000, 1002.000000)">
                <g id="Services" transform="translate(630.000000, 252.436490)">
                    <g id="#2" transform="translate(416.704388, 34.000000)">
                        <g id="efficient" transform="translate(146.295612, 0.563510)">
                            <g id="Group-22" transform="translate(0.000000, 35.409836)">
                                <path d="M0,48.6886721 L0,8.85260656" id="Stroke-1" stroke="#0872B9" stroke-width="2" stroke-linecap="round" stroke-linejoin="round"></path>
                                <path d="M0,48.6886721 L75.2459016,48.6886721" id="Stroke-3" stroke="#0872B9" stroke-width="2" stroke-linecap="round" stroke-linejoin="round"></path>
                                <polyline id="Stroke-5" stroke="#0872B9" stroke-width="2" stroke-linecap="round" stroke-linejoin="round" points="0 8.85260656 29.5081967 8.85260656 33.9329508 10.3280164 75.2459016 10.3280164"></polyline>
                                <polyline id="Stroke-7" stroke="#0872B9" stroke-width="2" stroke-linecap="round" stroke-linejoin="round" points="0 0.000147540984 29.5081967 0.000147540984 33.9329508 1.47555738 75.2459016 1.47555738"></polyline>
                                <path d="M75.2459016,10.3280164 L75.2459016,48.6886721" id="Stroke-9" stroke="#0872B9" stroke-width="2" stroke-linecap="round" stroke-linejoin="round"></path>
                                <path d="M4.42622951,8.85260656 L4.42622951,50.164082" id="Stroke-11" stroke="#0872B9" stroke-width="2" stroke-linecap="round" stroke-linejoin="round"></path>
                                <path d="M10.3278689,48.6886721 L10.3278689,53.1149016" id="Stroke-13" stroke="#0872B9" stroke-width="2" stroke-linecap="round" stroke-linejoin="round"></path>
                                <g id="Group-17" transform="translate(10.327869, 53.114754)">
                                    <mask id="mask-2" fill="white">
                                        <use xlink:href="#path-1"></use>
                                    </mask>
                                    <g id="Clip-16"></g>
                                    <path d="M0,0.000147540984 L32.4590164,0.000147540984" id="Stroke-15" stroke="#0872B9" stroke-width="2" stroke-linecap="round" stroke-linejoin="round" mask="url(#mask-2)"></path>
                                </g>
                                <path d="M42.7868852,53.1149016 L42.7868852,48.6886721" id="Stroke-18" stroke="#0872B9" stroke-width="2" stroke-linecap="round" stroke-linejoin="round"></path>
                                <path d="M16.2295082,53.1149016 L16.2295082,51.6394918" id="Stroke-20" stroke="#0872B9" stroke-width="2" stroke-linecap="round" stroke-linejoin="round"></path>
                            </g>
                            <path d="M75.2459016,36.8853934 L75.2459016,45.7378525" id="Stroke-23" stroke="#0872B9" stroke-width="2" stroke-linecap="round" stroke-linejoin="round"></path>
                            <g id="Group-28" transform="translate(0.000000, 26.557377)" stroke="#0872B9" stroke-linecap="round" stroke-linejoin="round" stroke-width="2">
                                <path d="M0,8.85260656 L0,17.7050656" id="Stroke-24"></path>
                                <polyline id="Stroke-26" points="0 0.000147540984 29.5081967 0.000147540984 33.9329508 1.47555738 75.2459016 1.47555738"></polyline>
                            </g>
                            <path d="M75.2459016,28.0329344 L75.2459016,36.8853934" id="Stroke-29" stroke="#0872B9" stroke-width="2" stroke-linecap="round" stroke-linejoin="round"></path>
                            <g id="Group-34" transform="translate(0.000000, 17.704918)" stroke="#0872B9" stroke-linecap="round" stroke-linejoin="round" stroke-width="2">
                                <path d="M0,8.85260656 L0,17.7050656" id="Stroke-30"></path>
                                <polyline id="Stroke-32" points="0 0.000147540984 29.5081967 0.000147540984 33.9329508 1.47555738 75.2459016 1.47555738"></polyline>
                            </g>
                            <path d="M75.2459016,19.1804754 L75.2459016,28.0329344" id="Stroke-35" stroke="#0872B9" stroke-width="2" stroke-linecap="round" stroke-linejoin="round"></path>
                            <g id="Group-40" transform="translate(0.000000, 8.852459)" stroke="#0872B9" stroke-linecap="round" stroke-linejoin="round" stroke-width="2">
                                <path d="M0,8.85260656 L0,17.7050656" id="Stroke-36"></path>
                                <polyline id="Stroke-38" points="0 0.000147540984 29.5081967 0.000147540984 33.9329508 1.47555738 75.2459016 1.47555738"></polyline>
                            </g>
                            <path d="M75.2459016,10.3280164 L75.2459016,19.1804754" id="Stroke-41" stroke="#0872B9" stroke-width="2" stroke-linecap="round" stroke-linejoin="round"></path>
                            <g id="Group-50" stroke="#0872B9" stroke-linecap="round" stroke-linejoin="round" stroke-width="2">
                                <path d="M0,8.85260656 L0,17.7050656" id="Stroke-42"></path>
                                <polyline id="Stroke-44" points="0 0.000147540984 29.5081967 0.000147540984 33.9329508 1.47555738 75.2459016 1.47555738"></polyline>
                                <path d="M75.2459016,1.47555738 L75.2459016,10.3280164" id="Stroke-46"></path>
                                <path d="M0,0.000147540984 L0,8.85260656" id="Stroke-48"></path>
                            </g>
                            <path d="M75.2459016,41.311623 L82.6229508,41.311623" id="Stroke-51" stroke="#0872B9" stroke-width="2" stroke-linecap="round" stroke-linejoin="round"></path>
                            <g id="Group-154" transform="translate(10.327869, 5.901639)" stroke="#0872B9" stroke-linecap="round" stroke-linejoin="round" stroke-width="2">
                                <path d="M75.2805738,38.3953279 C75.2805738,36.7458197 73.9453279,35.4105738 72.2958197,35.4105738" id="Stroke-52"></path>
                                <path d="M64.9180328,26.5575246 L72.295082,26.5575246" id="Stroke-54"></path>
                                <path d="M75.2459016,29.5083443 C75.2459016,27.8780164 73.9254098,26.5575246 72.295082,26.5575246" id="Stroke-56"></path>
                                <path d="M64.9180328,17.7050656 L72.295082,17.7050656" id="Stroke-58"></path>
                                <path d="M75.2459016,20.6558852 C75.2459016,19.0255574 73.9254098,17.7050656 72.295082,17.7050656" id="Stroke-60"></path>
                                <path d="M64.9180328,8.85260656 L72.295082,8.85260656" id="Stroke-62"></path>
                                <path d="M75.2459016,11.8034262 C75.2459016,10.1730984 73.9254098,8.85260656 72.295082,8.85260656" id="Stroke-64"></path>
                                <path d="M64.9180328,0.000147540984 L72.295082,0.000147540984" id="Stroke-66"></path>
                                <path d="M75.2459016,2.95096721 C75.2459016,1.32063934 73.9254098,0.000147540984 72.295082,0.000147540984" id="Stroke-68"></path>
                                <path d="M75.2459016,2.95096721 L75.2459016,72.2642459" id="Stroke-70"></path>
                                <path d="M75.2459016,72.2649836 C75.2459016,75.5271148 77.8854098,78.166623 81.147541,78.166623" id="Stroke-72"></path>
                                <path d="M16.2295082,59.016541 C16.2295082,60.6453934 14.907541,61.9673607 13.2786885,61.9673607 C11.6498361,61.9673607 10.3278689,60.6453934 10.3278689,59.016541 C10.3278689,57.3876885 11.6498361,56.0657213 13.2786885,56.0657213 C14.907541,56.0657213 16.2295082,57.3876885 16.2295082,59.016541 Z" id="Stroke-74"></path>
                                <path d="M13.2786885,56.0657213 L13.2786885,51.6394918" id="Stroke-76"></path>
                                <path d="M10.3278689,48.6886721 C10.3278689,50.319 11.6483607,51.6394918 13.2786885,51.6394918" id="Stroke-78"></path>
                                <path d="M10.3278689,48.6886721 L10.3278689,47.5850656" id="Stroke-80"></path>
                                <path d="M10.7241639,57.5411311 L6.88957377,55.3280164" id="Stroke-82"></path>
                                <path d="M2.86008197,56.4086066 C4.27352459,57.2245082 6.075,56.7405738 6.88942623,55.3286066" id="Stroke-84"></path>
                                <path d="M2.86008197,56.4086066 L1.9054918,55.8553279" id="Stroke-86"></path>
                                <path d="M10.7256393,60.4904754 L6.88957377,62.7050656" id="Stroke-88"></path>
                                <path d="M5.81237705,66.735 C7.22434426,65.917623 7.70532787,64.117623 6.88942623,62.7056557" id="Stroke-90"></path>
                                <path d="M5.81237705,66.735 L4.85631148,67.2853279" id="Stroke-92"></path>
                                <path d="M13.2786885,61.9644098 L13.2801639,66.3935902" id="Stroke-94"></path>
                                <path d="M16.2309836,69.341459 C16.2295082,67.7111311 14.9090164,66.3935902 13.2801639,66.3935902" id="Stroke-96"></path>
                                <path d="M16.2309836,69.341459 L16.2295082,70.4450656" id="Stroke-98"></path>
                                <path d="M15.8318852,60.489 L19.6709016,62.7035902" id="Stroke-100"></path>
                                <path d="M23.6974426,61.6215246 C22.284,60.8070984 20.484,61.2925082 19.6710492,62.703" id="Stroke-102"></path>
                                <path d="M23.6974426,61.6215246 L24.6520328,62.1748033" id="Stroke-104"></path>
                                <path d="M19.1803279,69.2377377 C13.5368852,72.4954426 6.31327869,70.5597049 3.05409836,64.9147869 C-0.205081967,59.2728197 1.73360656,52.0521639 7.37704918,48.794459 C13.0204918,45.5352787 20.242623,47.469541 23.5018033,53.1115082 C26.7595082,58.7564262 24.8237705,65.9785574 19.1803279,69.2377377 Z" id="Stroke-106"></path>
                                <path d="M15.8318852,57.5411311 L19.6694262,55.3250656" id="Stroke-108"></path>
                                <path d="M20.7451475,51.2966066 C19.3331803,52.1125082 18.8551475,53.9125082 19.6695738,55.3244754" id="Stroke-110"></path>
                                <path d="M20.7451475,51.2966066 L21.7012131,50.7462787" id="Stroke-112"></path>
                                <path d="M48.69,59.016541 C48.69,60.6453934 47.3680328,61.9673607 45.7391803,61.9673607 C44.1103279,61.9673607 42.7883607,60.6453934 42.7883607,59.016541 C42.7883607,57.3876885 44.1103279,56.0657213 45.7391803,56.0657213 C47.3680328,56.0657213 48.69,57.3876885 48.69,59.016541 Z" id="Stroke-114"></path>
                                <path d="M45.7391803,56.0657213 L45.7391803,51.6394918" id="Stroke-116"></path>
                                <path d="M42.7883607,48.6886721 C42.7883607,50.319 44.1088525,51.6394918 45.7391803,51.6394918" id="Stroke-118"></path>
                                <path d="M42.7883607,48.6886721 L42.7883607,47.5850656" id="Stroke-120"></path>
                                <path d="M43.1846557,57.5411311 L39.3500656,55.3280164" id="Stroke-122"></path>
                                <path d="M35.3205738,56.4086066 C36.7340164,57.2245082 38.5354918,56.7405738 39.349918,55.3286066" id="Stroke-124"></path>
                                <path d="M35.3205738,56.4086066 L34.3659836,55.8553279" id="Stroke-126"></path>
                                <path d="M43.1861311,60.4904754 L39.3500656,62.7050656" id="Stroke-128"></path>
                                <path d="M38.2728689,66.735 C39.6848361,65.917623 40.1658197,64.117623 39.349918,62.7056557" id="Stroke-130"></path>
                                <path d="M38.2728689,66.735 L37.3168033,67.2853279" id="Stroke-132"></path>
                                <path d="M45.7391803,61.9644098 L45.7406557,66.3935902" id="Stroke-134"></path>
                                <path d="M48.6914754,69.341459 C48.69,67.7111311 47.3695082,66.3935902 45.7406557,66.3935902" id="Stroke-136"></path>
                                <path d="M48.6914754,69.341459 L48.69,70.4450656" id="Stroke-138"></path>
                                <path d="M48.292377,60.489 L52.1313934,62.7035902" id="Stroke-140"></path>
                                <path d="M56.1577869,61.6215246 C54.7443443,60.8070984 52.9443443,61.2925082 52.1313934,62.703" id="Stroke-142"></path>
                                <path d="M56.1577869,61.6215246 L57.112377,62.1748033" id="Stroke-144"></path>
                                <path d="M51.6408197,69.2377377 C45.997377,72.4954426 38.7737705,70.5597049 35.5145902,64.9147869 C32.2554098,59.2728197 34.1940984,52.0521639 39.837541,48.794459 C45.4809836,45.5352787 52.7031148,47.469541 55.9622951,53.1115082 C59.22,58.7564262 57.2842623,65.9785574 51.6408197,69.2377377 Z" id="Stroke-146"></path>
                                <path d="M48.292377,57.5411311 L52.129918,55.3250656" id="Stroke-148"></path>
                                <path d="M53.2056393,51.2966066 C51.7936721,52.1125082 51.3156393,53.9125082 52.1300656,55.3244754" id="Stroke-150"></path>
                                <path d="M53.2056393,51.2966066 L54.1617049,50.7462787" id="Stroke-152"></path>
                            </g>
                        </g>
                    </g>
                </g>
            </g>
        </g>
    </g>
</svg>