
<svg width="56px" height="128px" viewBox="0 0 56 128" version="1.1" xmlns="http://www.w3.org/2000/svg" xmlns:xlink="http://www.w3.org/1999/xlink">
    <defs>
        <polygon id="path-1" points="0 130 57.5270313 130 57.5270313 0 0 0"></polygon>
    </defs>
    <g id="PegnNet_Home" stroke="none" stroke-width="1" fill="none" fill-rule="evenodd">
        <g id="Landing-Page" transform="translate(-1563.000000, -1256.000000)">
            <g id="SERVICES" transform="translate(-484.000000, 1002.000000)">
                <g id="Services" transform="translate(630.000000, 252.436490)">
                    <g id="#4" transform="translate(1248.113164, 0.000000)">
                        <g id="save" transform="translate(167.886836, 0.563510)">
                            <path d="M46.6949844,22.34375 C46.6949844,33.5582813 37.6010781,42.65625 26.3824844,42.65625 C15.1638906,42.65625 6.06998438,33.5582813 6.06998438,22.34375 C6.06998438,11.1251563 15.1638906,2.03125 26.3824844,2.03125 C37.6010781,2.03125 46.6949844,11.1251563 46.6949844,22.34375 Z" id="Stroke-1" stroke="#0872B9" stroke-width="2" stroke-linecap="round" stroke-linejoin="round"></path>
                            <path d="M46.6949844,30.4669219 C46.6949844,41.6814531 37.6010781,50.7794219 26.3824844,50.7794219 C15.1638906,50.7794219 6.06998438,41.6814531 6.06998438,30.4669219" id="Stroke-3" stroke="#0872B9" stroke-width="2" stroke-linecap="round" stroke-linejoin="round"></path>
                            <path d="M46.6949844,30.4669219 L46.6949844,22.3439531" id="Stroke-5" stroke="#0872B9" stroke-width="2" stroke-linecap="round" stroke-linejoin="round"></path>
                            <path d="M22.3199844,12.1875 L22.3199844,30.46875" id="Stroke-7" stroke="#0872B9" stroke-width="2" stroke-linecap="round" stroke-linejoin="round"></path>
                            <path d="M28.4137344,12.1875 C30.6582656,12.1875 32.4762344,14.0054688 32.4762344,16.2479688 C32.4762344,18.4925 30.6582656,20.3104687 28.4137344,20.3104687" id="Stroke-9" stroke="#0872B9" stroke-width="2" stroke-linecap="round" stroke-linejoin="round"></path>
                            <path d="M29.4273281,20.3086406 C32.2324844,20.3086406 34.5074844,22.5836406 34.5074844,25.3908281 C34.5074844,28.1939531 32.2324844,30.4689531 29.4273281,30.4689531" id="Stroke-11" stroke="#0872B9" stroke-width="2" stroke-linecap="round" stroke-linejoin="round"></path>
                            <path d="M20.2887344,12.1875 L28.4137344,12.1875" id="Stroke-13" stroke="#0872B9" stroke-width="2" stroke-linecap="round" stroke-linejoin="round"></path>
                            <path d="M20.2887344,30.46875 L29.4273281,30.46875" id="Stroke-15" stroke="#0872B9" stroke-width="2" stroke-linecap="round" stroke-linejoin="round"></path>
                            <path d="M29.4273281,20.3086406 L22.3199844,20.3127031" id="Stroke-17" stroke="#0872B9" stroke-width="2" stroke-linecap="round" stroke-linejoin="round"></path>
                            <path d="M26.3824844,12.1875 L26.3824844,10.1542188" id="Stroke-19" stroke="#0872B9" stroke-width="2" stroke-linecap="round" stroke-linejoin="round"></path>
                            <path d="M26.3824844,30.46875 L26.3824844,32.5" id="Stroke-21" stroke="#0872B9" stroke-width="2" stroke-linecap="round" stroke-linejoin="round"></path>
                            <path d="M26.3824844,42.65625 L26.3824844,50.7792188" id="Stroke-23" stroke="#0872B9" stroke-width="2" stroke-linecap="round" stroke-linejoin="round"></path>
                            <path d="M36.5387344,39.9386406 L36.5387344,48.0595781" id="Stroke-25" stroke="#0872B9" stroke-width="2" stroke-linecap="round" stroke-linejoin="round"></path>
                            <path d="M16.2262344,39.9386406 L16.2262344,48.0595781" id="Stroke-27" stroke="#0872B9" stroke-width="2" stroke-linecap="round" stroke-linejoin="round"></path>
                            <path d="M6.06998438,30.4669219 L6.06998438,22.3439531" id="Stroke-29" stroke="#0872B9" stroke-width="2" stroke-linecap="round" stroke-linejoin="round"></path>
                            <mask id="mask-2" fill="white">
                                <use xlink:href="#path-1"></use>
                            </mask>
                            <g id="Clip-32"></g>
                            <polygon id="Stroke-31" stroke="#0872B9" stroke-width="2" stroke-linecap="round" stroke-linejoin="round" mask="url(#mask-2)" points="2.03125 93.4375 50.7345313 93.4375 50.7345313 87.34375 2.03125 87.34375"></polygon>
                            <path d="M4.01496875,93.4375 L10.1330937,127.96875" id="Stroke-33" stroke="#0872B9" stroke-width="2" stroke-linecap="round" stroke-linejoin="round" mask="url(#mask-2)"></path>
                            <path d="M48.71425,93.4375 L42.596125,127.96875" id="Stroke-34" stroke="#0872B9" stroke-width="2" stroke-linecap="round" stroke-linejoin="round" mask="url(#mask-2)"></path>
                            <path d="M10.1324844,127.96875 L42.5959219,127.96875" id="Stroke-35" stroke="#0872B9" stroke-width="2" stroke-linecap="round" stroke-linejoin="round" mask="url(#mask-2)"></path>
                            <path d="M26.3824844,50.7794219 L26.3581094,87.3439531" id="Stroke-36" stroke="#0872B9" stroke-width="2" stroke-linecap="round" stroke-linejoin="round" mask="url(#mask-2)"></path>
                            <path d="M46.3220469,74.8072812 C43.1492344,77.9800937 38.0040781,77.9800937 34.8332969,74.8072812 C31.6584531,71.6344687 31.6584531,66.4893125 34.8332969,63.3185312 C38.0040781,60.1436875 51.6236094,51.6693125 54.7964219,54.8441562 C57.9692344,58.0149375 49.4948594,71.6344687 46.3220469,74.8072812 Z" id="Stroke-37" stroke="#0872B9" stroke-width="2" stroke-linecap="round" stroke-linejoin="round" mask="url(#mask-2)"></path>
                            <path d="M40.9264375,68.7135312 L26.3826875,83.2816562" id="Stroke-38" stroke="#0872B9" stroke-width="2" stroke-linecap="round" stroke-linejoin="round" mask="url(#mask-2)"></path>
                            <path d="M7.53390625,56.3671875 C5.549375,58.3517187 9.611875,65.6276563 11.5964062,67.6101563 C13.5809375,69.5946875 16.794375,69.5946875 18.776875,67.6101563 C20.7614063,65.6276563 20.7614063,62.4142187 18.776875,60.4296875 C16.794375,58.4451563 9.5184375,54.3826563 7.53390625,56.3671875 Z" id="Stroke-39" stroke="#0872B9" stroke-width="2" stroke-linecap="round" stroke-linejoin="round" mask="url(#mask-2)"></path>
                            <path d="M18.7770781,67.6105625 L26.3434844,75.1769688" id="Stroke-40" stroke="#0872B9" stroke-width="2" stroke-linecap="round" stroke-linejoin="round" mask="url(#mask-2)"></path>
                            <path d="M18.2337188,127.96875 L18.2337188,125.9375" id="Stroke-41" stroke="#0872B9" stroke-width="2" stroke-linecap="round" stroke-linejoin="round" mask="url(#mask-2)"></path>
                            <path d="M26.3587188,127.96875 L26.3587188,125.9375" id="Stroke-42" stroke="#0872B9" stroke-width="2" stroke-linecap="round" stroke-linejoin="round" mask="url(#mask-2)"></path>
                            <path d="M34.4837188,127.96875 L34.4837188,125.9375" id="Stroke-43" stroke="#0872B9" stroke-width="2" stroke-linecap="round" stroke-linejoin="round" mask="url(#mask-2)"></path>
                        </g>
                    </g>
                </g>
            </g>
        </g>
    </g>
</svg>