<svg height="512pt" viewBox="0 0 512 512" width="512pt" xmlns="http://www.w3.org/2000/svg"><path d="m25.601562 298.667969h460.796876c9.425781 0 17.066406 7.640625 17.066406 17.066406v170.664063c0 9.425781-7.640625 17.066406-17.066406 17.066406h-460.796876c-9.425781 0-17.066406-7.640625-17.066406-17.066406v-170.664063c0-9.425781 7.640625-17.066406 17.066406-17.066406zm0 0" fill="#cad9fc"/><path d="m25.601562 298.667969h435.199219c9.425781 0 17.066407 7.640625 17.066407 17.066406v170.664063c0 9.425781-7.640626 17.066406-17.066407 17.066406h-435.199219c-9.425781 0-17.066406-7.640625-17.066406-17.066406v-170.664063c0-9.425781 7.640625-17.066406 17.066406-17.066406zm0 0" fill="#e8edfc"/><path d="m179.625 332.800781h-128.425781c-4.710938 0-8.53125 3.820313-8.53125 8.53125v119.46875c0 4.710938 3.820312 8.53125 8.53125 8.53125h409.601562c4.710938 0 8.53125-3.820312 8.53125-8.53125v-119.46875c0-4.710937-3.820312-8.53125-8.53125-8.53125zm0 0" fill="#e8edfc"/><path d="m25.601562 8.535156h460.796876c9.425781 0 17.066406 7.640625 17.066406 17.066406v170.664063c0 9.425781-7.640625 17.066406-17.066406 17.066406h-460.796876c-9.425781 0-17.066406-7.640625-17.066406-17.066406v-170.664063c0-9.425781 7.640625-17.066406 17.066406-17.066406zm0 0" fill="#cad9fc"/><path d="m25.601562 8.535156h435.199219c9.425781 0 17.066407 7.640625 17.066407 17.066406v170.664063c0 9.425781-7.640626 17.066406-17.066407 17.066406h-435.199219c-9.425781 0-17.066406-7.640625-17.066406-17.066406v-170.664063c0-9.425781 7.640625-17.066406 17.066406-17.066406zm0 0" fill="#e8edfc"/><path d="m179.625 42.667969h-128.425781c-4.710938 0-8.53125 3.820312-8.53125 8.53125v119.46875c0 4.710937 3.820312 8.53125 8.53125 8.53125h409.601562c4.710938 0 8.53125-3.820313 8.53125-8.53125v-119.46875c0-4.710938-3.820312-8.53125-8.53125-8.53125zm0 0" fill="#e8edfc"/><path d="m358.398438 110.933594c0 56.554687-45.84375 102.398437-102.398438 102.398437s-102.398438-45.84375-102.398438-102.398437c0-56.554688 45.84375-102.398438 102.398438-102.398438s102.398438 45.84375 102.398438 102.398438zm0 0" fill="#e8edfc"/><path d="m358.398438 401.066406c0 56.554688-45.84375 102.398438-102.398438 102.398438s-102.398438-45.84375-102.398438-102.398438c0-56.554687 45.84375-102.398437 102.398438-102.398437s102.398438 45.84375 102.398438 102.398437zm0 0" fill="#e8edfc"/><path d="m25.601562 503.464844h25.597657c-9.414063-.027344-17.039063-7.652344-17.066407-17.066406v-170.664063c.027344-9.414063 7.652344-17.039063 17.066407-17.066406h-25.597657c-9.414062.027343-17.039062 7.652343-17.066406 17.066406v170.664063c.027344 9.414062 7.652344 17.039062 17.066406 17.066406zm0 0" fill="#fff"/><path d="m25.601562 213.332031h25.597657c-9.414063-.027343-17.039063-7.652343-17.066407-17.066406v-170.664063c.027344-9.414062 7.652344-17.039062 17.066407-17.066406h-25.597657c-9.414062.027344-17.039062 7.652344-17.066406 17.066406v170.664063c.027344 9.414063 7.652344 17.039063 17.066406 17.066406zm0 0" fill="#fff"/><path d="m486.398438 221.867188h-460.796876c-14.132812-.015626-25.585937-11.46875-25.601562-25.601563v-170.664063c.015625-14.132812 11.46875-25.585937 25.601562-25.601562h460.796876c14.132812.015625 25.585937 11.46875 25.601562 25.601562v170.664063c-.015625 14.132813-11.46875 25.585937-25.601562 25.601563zm-460.796876-204.800782c-4.710937.003906-8.53125 3.824219-8.535156 8.535156v170.664063c.003906 4.710937 3.824219 8.53125 8.535156 8.535156h460.796876c4.710937-.003906 8.53125-3.824219 8.535156-8.535156v-170.664063c-.003906-4.710937-3.824219-8.53125-8.535156-8.535156zm0 0" fill="#428dff"/><path d="m256 221.867188c-61.265625 0-110.933594-49.667969-110.933594-110.933594s49.667969-110.933594 110.933594-110.933594 110.933594 49.667969 110.933594 110.933594c-.070313 61.238281-49.695313 110.863281-110.933594 110.933594zm0-204.800782c-51.839844 0-93.867188 42.027344-93.867188 93.867188s42.027344 93.867187 93.867188 93.867187 93.867188-42.027343 93.867188-93.867187c-.058594-51.816406-42.050782-93.808594-93.867188-93.867188zm0 0" fill="#428dff"/><path d="m460.800781 187.734375h-128.425781c-4.714844 0-8.535156-3.820313-8.535156-8.535156 0-4.710938 3.820312-8.53125 8.535156-8.53125h128.425781v-119.46875h-128.425781c-4.714844 0-8.535156-3.820313-8.535156-8.53125 0-4.714844 3.820312-8.535157 8.535156-8.535157h128.425781c9.421875.011719 17.054688 7.644532 17.066407 17.066407v119.46875c-.011719 9.417969-7.644532 17.054687-17.066407 17.066406zm0 0" fill="#428dff"/><path d="m179.625 187.734375h-128.425781c-9.421875-.011719-17.054688-7.648437-17.066407-17.066406v-119.46875c.011719-9.421875 7.644532-17.054688 17.066407-17.066407h128.425781c4.714844 0 8.535156 3.820313 8.535156 8.535157 0 4.710937-3.820312 8.53125-8.535156 8.53125h-128.425781v119.46875h128.425781c4.714844 0 8.535156 3.820312 8.535156 8.53125 0 4.714843-3.820312 8.535156-8.535156 8.535156zm0 0" fill="#428dff"/><path d="m102.398438 136.535156c-4.710938 0-8.53125-3.824218-8.53125-8.535156v-34.132812c0-4.714844 3.820312-8.535157 8.53125-8.535157 4.714843 0 8.535156 3.820313 8.535156 8.535157v34.132812c0 4.710938-3.820313 8.535156-8.535156 8.535156zm0 0" fill="#428dff"/><path d="m409.601562 136.535156c-4.714843 0-8.535156-3.824218-8.535156-8.535156v-34.132812c0-4.714844 3.820313-8.535157 8.535156-8.535157 4.710938 0 8.53125 3.820313 8.53125 8.535157v34.132812c0 4.710938-3.820312 8.535156-8.53125 8.535156zm0 0" fill="#428dff"/><path d="m281.601562 179.199219h-21.335937c-30.582031 0-55.464844-30.625-55.464844-68.265625s24.882813-68.265625 55.464844-68.265625h21.335937c4.710938 0 8.53125 3.820312 8.53125 8.53125 0 4.714843-3.820312 8.535156-8.53125 8.535156h-21.335937c-21.171875 0-38.398437 22.964844-38.398437 51.199219s17.226562 51.199218 38.398437 51.199218h21.335937c4.710938 0 8.53125 3.820313 8.53125 8.535157 0 4.710937-3.820312 8.53125-8.53125 8.53125zm0 0" fill="#428dff"/><path d="m273.066406 102.398438h-68.265625c-4.714843 0-8.535156-3.820313-8.535156-8.53125 0-4.714844 3.820313-8.535157 8.535156-8.535157h68.265625c4.714844 0 8.535156 3.820313 8.535156 8.535157 0 4.710937-3.820312 8.53125-8.535156 8.53125zm0 0" fill="#428dff"/><path d="m256 136.535156h-51.199219c-4.714843 0-8.535156-3.824218-8.535156-8.535156s3.820313-8.535156 8.535156-8.535156h51.199219c4.710938 0 8.535156 3.824218 8.535156 8.535156s-3.824218 8.535156-8.535156 8.535156zm0 0" fill="#428dff"/><path d="m17.066406 315.734375v170.664063h-17.066406v-170.664063zm0 0" fill="#fff"/><g fill="#428dff"><path d="m8.535156 358.398438c4.707032-.011719 8.519532-3.824219 8.53125-8.53125v-34.132813h-17.066406v34.132813c.015625 4.707031 3.828125 8.519531 8.535156 8.53125zm0 0"/><path d="m0 486.398438h17.066406v-68.265626c0-4.710937-3.820312-8.53125-8.53125-8.53125-4.714844 0-8.535156 3.820313-8.535156 8.53125zm0 0"/><path d="m17.066406 384c-.035156-2.257812-.917968-4.421875-2.472656-6.058594l-1.28125-1.023437c-.476562-.324219-.992188-.582031-1.535156-.769531-.484375-.246094-1.003906-.417969-1.539063-.511719-.5625-.09375-1.132812-.152344-1.703125-.171875-2.261718.035156-4.425781.917968-6.058594 2.476562-3.222656 3.398438-3.222656 8.71875 0 12.117188.8125.769531 1.769532 1.378906 2.8125 1.792968 1.027344.4375 2.128907.667969 3.246094.683594 2.257813-.035156 4.417969-.917968 6.058594-2.476562 1.554688-1.636719 2.4375-3.800782 2.472656-6.058594zm0 0"/><path d="m486.398438 512h-460.796876c-14.132812-.015625-25.585937-11.46875-25.601562-25.601562 0-4.710938 3.820312-8.53125 8.535156-8.53125 4.710938 0 8.53125 3.820312 8.53125 8.53125.003906 4.710937 3.824219 8.53125 8.535156 8.535156h460.796876c4.710937-.003906 8.53125-3.824219 8.535156-8.535156v-170.664063c-.003906-4.710937-3.824219-8.53125-8.535156-8.535156h-460.796876c-4.710937.003906-8.53125 3.824219-8.535156 8.535156 0 4.710937-3.820312 8.53125-8.53125 8.53125-4.714844 0-8.535156-3.820313-8.535156-8.53125.015625-14.132813 11.46875-25.585937 25.601562-25.601563h460.796876c14.132812.015626 25.585937 11.46875 25.601562 25.601563v170.664063c-.015625 14.132812-11.46875 25.585937-25.601562 25.601562zm0 0"/><path d="m256 512c-61.265625 0-110.933594-49.667969-110.933594-110.933594s49.667969-110.933594 110.933594-110.933594 110.933594 49.667969 110.933594 110.933594c-.070313 61.238282-49.695313 110.863282-110.933594 110.933594zm0-204.800781c-51.839844 0-93.867188 42.027343-93.867188 93.867187s42.027344 93.867188 93.867188 93.867188 93.867188-42.027344 93.867188-93.867188c-.058594-51.816406-42.050782-93.808594-93.867188-93.867187zm0 0"/><path d="m460.800781 477.867188h-128.425781c-4.714844 0-8.535156-3.820313-8.535156-8.535157 0-4.710937 3.820312-8.53125 8.535156-8.53125h128.425781v-119.46875h-128.425781c-4.714844 0-8.535156-3.820312-8.535156-8.53125 0-4.714843 3.820312-8.535156 8.535156-8.535156h128.425781c9.421875.011719 17.054688 7.648437 17.066407 17.066406v119.46875c-.011719 9.421875-7.644532 17.054688-17.066407 17.066407zm0 0"/><path d="m179.625 477.867188h-128.425781c-9.421875-.011719-17.054688-7.644532-17.066407-17.066407v-119.46875c.011719-9.417969 7.644532-17.054687 17.066407-17.066406h128.425781c4.714844 0 8.535156 3.820313 8.535156 8.535156 0 4.710938-3.820312 8.53125-8.535156 8.53125h-128.425781v119.46875h128.425781c4.714844 0 8.535156 3.820313 8.535156 8.53125 0 4.714844-3.820312 8.535157-8.535156 8.535157zm0 0"/><path d="m102.398438 426.667969c-4.710938 0-8.53125-3.820313-8.53125-8.535157v-34.132812c0-4.710938 3.820312-8.535156 8.53125-8.535156 4.714843 0 8.535156 3.824218 8.535156 8.535156v34.132812c0 4.714844-3.820313 8.535157-8.535156 8.535157zm0 0"/><path d="m409.601562 426.667969c-4.714843 0-8.535156-3.820313-8.535156-8.535157v-34.132812c0-4.710938 3.820313-8.535156 8.535156-8.535156 4.710938 0 8.53125 3.824218 8.53125 8.535156v34.132812c0 4.714844-3.820312 8.535157-8.53125 8.535157zm0 0"/><path d="m264.535156 460.800781h-42.667968c-4.714844 0-8.535157-3.820312-8.535157-8.535156 0-4.710937 3.820313-8.53125 8.535157-8.53125h42.667968c9.425782 0 17.066406-7.640625 17.066406-17.066406s-7.640624-17.066407-17.066406-17.066407h-17.070312c-18.847656 0-34.132813-15.285156-34.132813-34.136718 0-18.847656 15.285157-34.132813 34.132813-34.132813h42.667968c4.714844 0 8.535157 3.820313 8.535157 8.535157 0 4.710937-3.820313 8.53125-8.535157 8.53125h-42.667968c-9.425782 0-17.066406 7.640624-17.066406 17.066406 0 9.425781 7.640624 17.070312 17.066406 17.070312h17.070312c18.847656 0 34.132813 15.28125 34.132813 34.132813 0 18.851562-15.285157 34.132812-34.132813 34.132812zm0 0"/><path d="m256 358.398438c-4.710938 0-8.535156-3.820313-8.535156-8.53125v-17.066407c0-4.714843 3.824218-8.535156 8.535156-8.535156s8.535156 3.820313 8.535156 8.535156v17.066407c0 4.710937-3.824218 8.53125-8.535156 8.53125zm0 0"/><path d="m256 477.867188c-4.710938 0-8.535156-3.820313-8.535156-8.535157v-17.066406c0-4.710937 3.824218-8.53125 8.535156-8.53125s8.535156 3.820313 8.535156 8.53125v17.066406c0 4.714844-3.824218 8.535157-8.535156 8.535157zm0 0"/><path d="m136.535156 264.535156c-2.265625 0-4.4375-.898437-6.035156-2.503906l-11.035156-11.03125-11.03125 11.03125c-3.347656 3.234375-8.671875 3.191406-11.960938-.101562-3.292968-3.292969-3.339844-8.613282-.105468-11.960938l17.066406-17.070312c1.597656-1.597657 3.769531-2.5 6.03125-2.5 2.265625 0 4.433594.902343 6.035156 2.5l17.066406 17.070312c2.441406 2.4375 3.167969 6.109375 1.847656 9.296875-1.320312 3.1875-4.429687 5.265625-7.878906 5.269531zm0 0"/><path d="m119.464844 281.601562c-4.710938 0-8.53125-3.820312-8.53125-8.535156v-34.132812c0-4.714844 3.820312-8.535156 8.53125-8.535156 4.714844 0 8.535156 3.820312 8.535156 8.535156v34.132812c0 4.714844-3.820312 8.535156-8.535156 8.535156zm0 0"/><path d="m392.535156 281.601562c-2.265625 0-4.4375-.898437-6.035156-2.5l-17.066406-17.070312c-3.234375-3.347656-3.1875-8.667969.105468-11.960938 3.289063-3.292968 8.613282-3.335937 11.960938-.101562l11.035156 11.03125 11.03125-11.03125c3.347656-3.234375 8.671875-3.191406 11.960938.101562 3.292968 3.292969 3.339844 8.613282.105468 11.960938l-17.066406 17.070312c-1.597656 1.601563-3.769531 2.5-6.03125 2.5zm0 0"/><path d="m392.535156 281.601562c-4.714844 0-8.535156-3.820312-8.535156-8.535156v-34.132812c0-4.714844 3.820312-8.535156 8.535156-8.535156 4.710938 0 8.53125 3.820312 8.53125 8.535156v34.132812c0 4.714844-3.820312 8.535156-8.53125 8.535156zm0 0"/></g></svg>