
<svg width="978px" height="988px" viewBox="0 0 978 988" version="1.1" xmlns="http://www.w3.org/2000/svg" xmlns:xlink="http://www.w3.org/1999/xlink">
    <defs>
        <polygon id="path-1" points="0.342913832 0.495386885 574.601672 0.495386885 574.601672 278 0.342913832 278"></polygon>
        <polygon id="path-3" points="0.484558314 0.233439683 278.993466 0.233439683 278.993466 573.478519 0.484558314 573.478519"></polygon>
        <polygon id="path-5" points="0.572718254 0.487149533 574.816482 0.487149533 574.816482 277.355274 0.572718254 277.355274"></polygon>
    </defs>
    <g id="PegnNet_Home" stroke="none" stroke-width="1" fill="none" fill-rule="evenodd" opacity="0.04">
        <g id="Landing-Page" transform="translate(-192.000000, -784.000000)">
            <g id="SERVICES" transform="translate(146.000000, 784.000000)">
                <g id="icon_logo" transform="translate(46.000000, 0.000000)">
                    <g id="Group-3" transform="translate(72.000000, 710.000000)">
                        <mask id="mask-2" fill="white">
                            <use xlink:href="#path-1"></use>
                        </mask>
                        <g id="Clip-2"></g>
                        <path d="M453.774093,263.268539 C434.144558,282.886745 402.277693,282.934272 382.616865,263.268539 L269.403146,150.221499 L73.8503401,150.764478 L0.342913832,65.0057101 L305.573384,65.0057101 C318.850539,65.0057101 331.808248,70.3091948 341.167319,79.6876258 L418.226446,156.660422 L574.601672,0.495386885 L574.601672,142.617841 L453.774093,263.268539 Z" id="Fill-1" fill="#0C3252" mask="url(#mask-2)"></path>
                    </g>
                    <g id="Group-6" transform="translate(699.000000, 332.000000)">
                        <mask id="mask-4" fill="white">
                            <use xlink:href="#path-3"></use>
                        </mask>
                        <g id="Clip-5"></g>
                        <path d="M264.202938,120.835916 C283.908048,140.447583 283.939411,172.259027 264.202938,191.869392 L150.732919,304.901837 L151.311174,500.114551 L65.2119049,573.478519 L65.2119049,268.795154 C65.2119049,255.539138 70.5664834,242.620884 79.9949845,233.261821 L157.211338,156.352329 L0.484558314,0.233439683 L143.134579,0.233439683 L264.202938,120.835916 Z" id="Fill-4" fill="#0872B9" mask="url(#mask-4)"></path>
                    </g>
                    <path d="M14.7698221,532.436244 C-4.89880945,512.849781 -4.94772341,481.069101 14.7698221,461.435152 L128.011521,348.486764 L127.451293,153.346134 L213.392478,80 L213.392478,384.560723 C213.392478,397.810045 208.04716,410.739322 198.65307,420.061594 L121.546399,496.968548 L278,653 L135.597751,653 L14.7698221,532.436244 Z" id="Fill-7" fill="#0C3252"></path>
                    <g id="Group-11" transform="translate(333.000000, 0.000000)">
                        <mask id="mask-6" fill="white">
                            <use xlink:href="#path-5"></use>
                        </mask>
                        <g id="Clip-10"></g>
                        <path d="M121.385303,15.1960776 C141.029833,-4.39252991 172.898654,-4.43929626 192.542531,15.1960776 L305.772548,127.97769 L501.324702,127.420391 L574.816482,212.994377 L269.60231,212.994377 C256.3232,212.994377 243.38244,207.672106 234.007072,198.315587 L156.947945,121.538872 L0.572718254,277.355274 L0.572718254,135.548643 L121.385303,15.1960776 Z" id="Fill-9" fill="#0C3252" mask="url(#mask-6)"></path>
                    </g>
                    <polygon id="Fill-12" fill="#0872B9" points="488.500325 672 295 478.500325 488.500325 285 682 478.500325"></polygon>
                </g>
            </g>
        </g>
    </g>
</svg>