<svg id="Layer_1" data-name="Layer 1" xmlns="http://www.w3.org/2000/svg" viewBox="0 0 1104.1 200.95"><defs><style>.cls-1{fill:#fff;fill-rule:evenodd;}</style></defs><title>PegNetMarketCap</title><path class="cls-1" d="M409.56-190.75v-.19c0-13.59-9.59-23-25.43-23H357v66.52H371.6v-20h11.1c14.9,0,26.86-8,26.86-23.38Zm-14.81.28c0,5.71-4.27,10.08-11.57,10.08H371.6v-20.34h11.29c7.31,0,11.86,3.52,11.86,10.07v.19Zm71.08,19v-.19c0-14.44-7.79-27.65-24.77-27.65-14.8,0-25.15,12-25.15,26.51v.19c0,15.58,11.3,26.32,26.57,26.32,9.21,0,16-3.61,20.78-9.5L455-163.1c-4,3.71-7.5,5.23-12.34,5.23-6.45,0-11-3.42-12.43-10h35.4c.09-1.33.19-2.18.19-3.61Zm-14.05-5.42H430.05c1.14-6.55,5-10.83,11-10.83s9.87,4.37,10.72,10.83Zm75.91,18v-39.43H513.27v6.65c-3.89-4.28-8.54-7.6-16.42-7.6-11.67,0-22.58,8.55-22.58,23.75v.19c0,15.11,10.72,23.76,22.58,23.76,7.69,0,12.34-3.14,16.61-8.27v2.47c0,9.13-4.65,13.88-14.52,13.88a33.12,33.12,0,0,1-17.17-4.66l-4.94,10.83A48.26,48.26,0,0,0,499.32-132c18.88,0,28.37-7.7,28.37-26.9Zm-14.23-16.44c0,6.94-5.41,11.79-12.43,11.79s-12.34-4.75-12.34-11.79v-.19c0-6.93,5.32-11.78,12.34-11.78s12.43,4.85,12.43,11.78v.19Zm267.59,27.94v-66.52H765.3l-17.46,28.13-17.46-28.13H714.63v66.52H729v-43.14l18.51,28.13h.38l18.69-28.42v43.43Zm58.17,0V-177c0-13.78-6.93-21.95-22.68-21.95a44.84,44.84,0,0,0-19.74,4.08l3.61,11a37.37,37.37,0,0,1,14-2.76c7.21,0,10.91,3.33,10.91,9.31v.86a36,36,0,0,0-12.43-2.09c-12,0-20.5,5.13-20.5,16.25v.19c0,10.07,7.88,15.58,17.46,15.58,7,0,11.87-2.56,15.38-6.46v5.51Zm-13.67-18c0,5.23-4.55,8.93-11.29,8.93-4.65,0-7.88-2.28-7.88-6.17v-.19c0-4.56,3.8-7,10-7a22.33,22.33,0,0,1,9.2,1.9v2.56Zm56.75-18.81V-199.3c-8.54-.38-13.29,4.18-16.23,11.21v-10.26H851.65v50.93h14.42v-18.81c0-12.17,5.88-18,15.47-18Zm58.26,36.77-20-30.88,19.35-20H922.62l-16.89,18.53v-37H891.31v69.37h14.42v-15.49l5-5.32,13.29,20.81Zm52-24v-.19c0-14.44-7.78-27.65-24.77-27.65-14.8,0-25.15,12-25.15,26.51v.19c0,15.58,11.3,26.32,26.57,26.32,9.21,0,16-3.61,20.78-9.5l-8.25-7.32c-4,3.71-7.5,5.23-12.34,5.23-6.45,0-11-3.42-12.43-10h35.4c.09-1.33.19-2.18.19-3.61Zm-14-5.42H956.78c1.14-6.55,5-10.83,11-10.83s9.87,4.37,10.72,10.83Zm53.33,27.37V-161.1a14.66,14.66,0,0,1-7.12,1.8c-3.22,0-4.65-1.61-4.65-4.94V-186h12v-12.35h-12v-13h-14.42v13h-6.07V-186h6.07v24.14c0,11.78,6,15.3,14.8,15.3a21.22,21.22,0,0,0,11.39-2.95Zm70.69-8.65-9.3-9.4c-5.22,4.75-9.86,7.79-17.46,7.79-11.38,0-19.26-9.5-19.26-20.91v-.19c0-11.4,8.07-20.71,19.26-20.71,6.65,0,11.87,2.85,17,7.5l9.3-10.73c-6.17-6.09-13.67-10.27-26.19-10.27-20.4,0-34.64,15.49-34.64,34.4v.19c0,19.1,14.52,34.21,34.07,34.21,12.81,0,20.4-4.56,27.23-11.88Zm53.9,10.74V-177c0-13.78-6.93-21.95-22.68-21.95a44.79,44.79,0,0,0-19.73,4.08l3.6,11a37.37,37.37,0,0,1,14-2.76c7.22,0,10.92,3.33,10.92,9.31v.86a36,36,0,0,0-12.43-2.09c-12.05,0-20.5,5.13-20.5,16.25v.19c0,10.07,7.88,15.58,17.46,15.58,7,0,11.86-2.56,15.37-6.46v5.51Zm-13.66-18c0,5.23-4.56,8.93-11.3,8.93-4.65,0-7.87-2.28-7.87-6.17v-.19c0-4.56,3.79-7,10-7a22.38,22.38,0,0,1,9.21,1.9v2.56Zm79.51-7.41V-173c0-17-11.29-26.32-23.15-26.32-7.5,0-12.34,3.51-15.85,8.26v-7.31h-14.42v66.13h14.42v-21.85c3.42,4.09,8.16,7.6,15.85,7.6,12,0,23.15-9.31,23.15-26.32Zm-14.42,0c0,8.55-5.69,14.06-12.43,14.06s-12.34-5.6-12.34-14.06V-173c0-8.46,5.6-14.06,12.34-14.06s12.43,5.6,12.43,14.06Z" transform="translate(-118.19 274.99)"/><path class="cls-1" d="M601.14-147.42v-66.52H586.71v41l-31.12-41H542.12v66.52h14.42v-42.29l32.17,42.29Zm61.87-24v-.19c0-14.44-7.79-27.65-24.77-27.65-14.8,0-25.15,12-25.15,26.51v.19c0,15.58,11.3,26.32,26.57,26.32,9.21,0,16-3.61,20.78-9.5l-8.25-7.32c-4,3.71-7.5,5.23-12.34,5.23-6.45,0-11-3.42-12.43-10h35.4c.09-1.33.19-2.18.19-3.61Zm-14-5.42H627.23c1.14-6.55,5-10.83,11-10.83s9.87,4.37,10.72,10.83Zm53.33,27.37V-161.1a14.66,14.66,0,0,1-7.12,1.8c-3.22,0-4.65-1.61-4.65-4.94V-186h12v-12.35h-12v-13H676.1v13H670V-186h6.07v24.14c0,11.78,6,15.3,14.8,15.3A21.22,21.22,0,0,0,702.29-149.51Z" transform="translate(-118.19 274.99)"/><polygon class="cls-1" points="98.98 59.33 134.49 79.87 134.49 120.96 98.98 141.5 63.48 120.96 63.48 79.87 98.98 59.33"/><polygon class="cls-1" points="15.06 85.95 0 94.66 0 71.09 15.06 62.38 33.12 51.93 33.53 51.93 44.52 45.58 53.81 40.21 69.33 31.23 89.49 42.9 53.81 63.53 44.52 68.91 24.35 80.58 15.06 85.95"/><polygon class="cls-1" points="153.45 121.18 153.45 68.91 153.45 45.58 153.45 17.43 173.62 29.09 173.62 57.25 173.62 109.51 153.45 121.18"/><polygon class="cls-1" points="144.16 160.62 128.44 169.71 108.27 158.05 144.16 137.29 153.45 131.92 173.62 120.25 182.91 114.88 185.08 113.63 197.97 106.17 197.97 129.74 182.91 138.44 164.85 148.89 164.44 148.89 153.45 155.25 144.16 160.62"/><polygon class="cls-1" points="89.69 181.38 53.81 160.62 53.81 137.29 89.69 158.05 98.98 163.42 119.15 175.09 143.49 189.16 123.12 200.95 98.98 186.99 98.98 186.75 89.69 181.38"/><polygon class="cls-1" points="44.52 155.25 44.52 183.4 24.35 171.74 24.35 143.58 24.35 91.32 44.52 79.65 44.52 131.92 44.52 155.25"/><polygon class="cls-1" points="108.27 42.78 98.98 37.41 98.78 37.52 78.61 25.86 54.27 11.78 74.65 0 98.98 14.08 108.27 19.45 144.16 40.21 144.16 63.53 108.27 42.78"/><polygon class="cls-1" points="98.98 100.41 134.49 79.87 134.49 120.96 98.98 141.5 63.48 120.96 63.48 79.87 98.98 100.41"/><polygon class="cls-1" points="63.48 79.87 98.98 100.41 98.98 141.5 63.48 120.96 63.48 79.87"/></svg>